<svg width="14" height="14" viewBox="0 0 20 21" fill="none" xmlns="http://www.w3.org/2000/svg">
<path d="M15.0008 4.23318C13.6747 2.90709 11.8761 2.16211 10.0008 2.16211C8.12539 2.16211 6.32684 2.90709 5.00076 4.23318C3.67467 5.55926 2.92969 7.35781 2.92969 9.23318C2.92969 11.1085 3.67467 12.9071 5.00076 14.2332L9.39242 18.6332C9.46989 18.7113 9.56206 18.7733 9.66361 18.8156C9.76516 18.8579 9.87408 18.8797 9.98409 18.8797C10.0941 18.8797 10.203 18.8579 10.3046 18.8156C10.4061 18.7733 10.4983 18.7113 10.5758 18.6332L15.0008 14.1915C16.3213 12.8709 17.0632 11.0799 17.0632 9.21234C17.0632 7.3448 16.3213 5.55374 15.0008 4.23318ZM13.8091 12.9998L10.0008 16.8248L6.19242 12.9998C5.44004 12.2468 4.92782 11.2875 4.7205 10.2434C4.51318 9.19929 4.62008 8.11713 5.02768 7.13374C5.43527 6.15036 6.12527 5.30989 7.01045 4.71857C7.89562 4.12726 8.93624 3.81166 10.0008 3.81166C11.0653 3.81166 12.1059 4.12726 12.9911 4.71857C13.8762 5.30989 14.5662 6.15036 14.9738 7.13374C15.3814 8.11713 15.4883 9.19929 15.281 10.2434C15.0737 11.2875 14.5615 12.2468 13.8091 12.9998Z" fill="#212223"/>
<path fill-rule="evenodd" clip-rule="evenodd" d="M10 9.83301C10.5523 9.83301 11 9.38529 11 8.83301C11 8.28072 10.5523 7.83301 10 7.83301C9.44772 7.83301 9 8.28072 9 8.83301C9 9.38529 9.44772 9.83301 10 9.83301ZM10 11.333C11.3807 11.333 12.5 10.2137 12.5 8.83301C12.5 7.4523 11.3807 6.33301 10 6.33301C8.61929 6.33301 7.5 7.4523 7.5 8.83301C7.5 10.2137 8.61929 11.333 10 11.333Z" fill="#212223"/>
</svg>
