<svg width="22" height="22" viewBox="0 0 22 22" fill="none" xmlns="http://www.w3.org/2000/svg">
<path d="M17.4168 2.74984H16.5002V1.83317C16.5002 1.59006 16.4036 1.3569 16.2317 1.18499C16.0598 1.01308 15.8266 0.916504 15.5835 0.916504C15.3404 0.916504 15.1072 1.01308 14.9353 1.18499C14.7634 1.3569 14.6668 1.59006 14.6668 1.83317V2.74984H7.3335V1.83317C7.3335 1.59006 7.23692 1.3569 7.06501 1.18499C6.8931 1.01308 6.65994 0.916504 6.41683 0.916504C6.17371 0.916504 5.94056 1.01308 5.76865 1.18499C5.59674 1.3569 5.50016 1.59006 5.50016 1.83317V2.74984H4.5835C3.85415 2.74984 3.15468 3.03957 2.63895 3.55529C2.12323 4.07102 1.8335 4.77049 1.8335 5.49984V18.3332C1.8335 19.0625 2.12323 19.762 2.63895 20.2777C3.15468 20.7934 3.85415 21.0832 4.5835 21.0832H17.4168C18.1462 21.0832 18.8456 20.7934 19.3614 20.2777C19.8771 19.762 20.1668 19.0625 20.1668 18.3332V5.49984C20.1668 4.77049 19.8771 4.07102 19.3614 3.55529C18.8456 3.03957 18.1462 2.74984 17.4168 2.74984ZM18.3335 18.3332C18.3335 18.5763 18.2369 18.8094 18.065 18.9814C17.8931 19.1533 17.6599 19.2498 17.4168 19.2498H4.5835C4.34038 19.2498 4.10722 19.1533 3.93531 18.9814C3.76341 18.8094 3.66683 18.5763 3.66683 18.3332V10.0832H18.3335V18.3332ZM18.3335 8.24984H3.66683V5.49984C3.66683 5.25672 3.76341 5.02356 3.93531 4.85166C4.10722 4.67975 4.34038 4.58317 4.5835 4.58317H5.50016H6.14834H6.79652H7.06501H7.3335H14.6668H14.8567H15.1252H15.5835H16.2317H16.5002H17.4168C17.6599 4.58317 17.8931 4.67975 18.065 4.85166C18.2369 5.02356 18.3335 5.25672 18.3335 5.49984V8.24984Z"/>
</svg>
