<svg width="current" height="current" viewBox="0 0 16 17" fill="current" xmlns="http://www.w3.org/2000/svg">
<path d="M3.83333 7.66699H5.5V9.33366H3.83333V7.66699ZM15.5 3.50033V15.167C15.5 16.0837 14.75 16.8337 13.8333 16.8337H2.16667C1.24167 16.8337 0.5 16.0837 0.5 15.167L0.508333 3.50033C0.508333 2.58366 1.24167 1.83366 2.16667 1.83366H3V0.166992H4.66667V1.83366H11.3333V0.166992H13V1.83366H13.8333C14.75 1.83366 15.5 2.58366 15.5 3.50033ZM2.16667 5.16699H13.8333V3.50033H2.16667V5.16699ZM13.8333 15.167V6.83366H2.16667V15.167H13.8333ZM10.5 9.33366H12.1667V7.66699H10.5V9.33366ZM7.16667 9.33366H8.83333V7.66699H7.16667V9.33366Z" fill="current"/>
</svg>
