<svg width="24" height="24" viewBox="0 0 24 24" fill="none" xmlns="http://www.w3.org/2000/svg">
<path fill-rule="evenodd" clip-rule="evenodd" d="M19.3162 3.8H6.84954C6.68385 3.8 6.54954 3.93431 6.54954 4.1V19.9C6.54954 20.0657 6.68385 20.2 6.84954 20.2H19.3162C19.4819 20.2 19.6162 20.0657 19.6162 19.9V4.1C19.6162 3.93432 19.4819 3.8 19.3162 3.8ZM6.84954 2C5.68974 2 4.74954 2.9402 4.74954 4.1V5.33418H3.52734C2.97506 5.33418 2.52734 5.78189 2.52734 6.33418C2.52734 6.88646 2.97506 7.33418 3.52734 7.33418H4.74954V10.8888H3.52734C2.97506 10.8888 2.52734 11.3365 2.52734 11.8888C2.52734 12.4411 2.97506 12.8888 3.52734 12.8888H4.74954V16.4455H3.52734C2.97506 16.4455 2.52734 16.8932 2.52734 17.4455C2.52734 17.9978 2.97506 18.4455 3.52734 18.4455H4.74954V19.9C4.74954 21.0598 5.68974 22 6.84954 22H19.3162C20.476 22 21.4162 21.0598 21.4162 19.9V4.1C21.4162 2.9402 20.476 2 19.3162 2H6.84954ZM16.9716 6.44551H9.19385V8.44551H16.9716V6.44551Z" fill="#BFC5C9"/>
</svg>
