
<svg width="16" height="16" viewBox="0 0 16 16" fill="none" xmlns="http://www.w3.org/2000/svg">
<path d="M13.2668 8.44009C13.1599 8.31843 13.1009 8.16203 13.1009 8.00009C13.1009 7.83815 13.1599 7.68175 13.2668 7.56009L14.1201 6.60009C14.2141 6.4952 14.2725 6.36323 14.2869 6.2231C14.3013 6.08297 14.2709 5.94188 14.2001 5.82009L12.8668 3.51343C12.7967 3.39177 12.69 3.29534 12.5619 3.23788C12.4338 3.18042 12.2909 3.16486 12.1534 3.19343L10.9001 3.44676C10.7406 3.47971 10.5746 3.45315 10.4334 3.37209C10.2921 3.29103 10.1854 3.16108 10.1334 3.00676L9.72676 1.78676C9.68204 1.65435 9.59683 1.53934 9.48318 1.45799C9.36953 1.37664 9.23319 1.33307 9.09343 1.33343H6.42676C6.28138 1.32584 6.13752 1.36604 6.01714 1.4479C5.89676 1.52976 5.80648 1.64877 5.76009 1.78676L5.38676 3.00676C5.33476 3.16108 5.22807 3.29103 5.08684 3.37209C4.9456 3.45315 4.77957 3.47971 4.62009 3.44676L3.33343 3.19343C3.20313 3.17501 3.07029 3.19557 2.95166 3.25252C2.83302 3.30946 2.73389 3.40024 2.66676 3.51343L1.33343 5.82009C1.26087 5.94053 1.22824 6.08082 1.24022 6.22091C1.25219 6.361 1.30815 6.49372 1.40009 6.60009L2.24676 7.56009C2.35364 7.68175 2.41258 7.83815 2.41258 8.00009C2.41258 8.16203 2.35364 8.31843 2.24676 8.44009L1.40009 9.40009C1.30815 9.50646 1.25219 9.63918 1.24022 9.77928C1.22824 9.91937 1.26087 10.0597 1.33343 10.1801L2.66676 12.4868C2.73683 12.6084 2.84351 12.7048 2.97159 12.7623C3.09968 12.8198 3.24264 12.8353 3.38009 12.8068L4.63343 12.5534C4.7929 12.5205 4.95893 12.547 5.10017 12.6281C5.24141 12.7092 5.34809 12.8391 5.40009 12.9934L5.80676 14.2134C5.85315 14.3514 5.94342 14.4704 6.0638 14.5523C6.18418 14.6341 6.32805 14.6743 6.47343 14.6668H9.14009C9.27986 14.6671 9.4162 14.6235 9.52985 14.5422C9.64349 14.4608 9.7287 14.3458 9.77343 14.2134L10.1801 12.9934C10.2321 12.8391 10.3388 12.7092 10.48 12.6281C10.6213 12.547 10.7873 12.5205 10.9468 12.5534L12.2001 12.8068C12.3375 12.8353 12.4805 12.8198 12.6086 12.7623C12.7367 12.7048 12.8434 12.6084 12.9134 12.4868L14.2468 10.1801C14.3175 10.0583 14.3479 9.91722 14.3336 9.77709C14.3192 9.63696 14.2608 9.50498 14.1668 9.40009L13.2668 8.44009ZM12.2734 9.33343L12.8068 9.93342L11.9534 11.4134L11.1668 11.2534C10.6866 11.1553 10.1871 11.2368 9.76316 11.4826C9.33917 11.7284 9.02019 12.1213 8.86676 12.5868L8.61343 13.3334H6.90676L6.66676 12.5734C6.51333 12.108 6.19435 11.7151 5.77036 11.4693C5.34638 11.2235 4.84691 11.1419 4.36676 11.2401L3.58009 11.4001L2.71343 9.92676L3.24676 9.32676C3.57473 8.96008 3.75605 8.48538 3.75605 7.99343C3.75605 7.50147 3.57473 7.02677 3.24676 6.66009L2.71343 6.06009L3.56676 4.59343L4.35343 4.75343C4.83357 4.85157 5.33305 4.77001 5.75703 4.52422C6.18101 4.27844 6.5 3.88553 6.65343 3.42009L6.90676 2.66676H8.61343L8.86676 3.42676C9.02019 3.8922 9.33917 4.2851 9.76316 4.53089C10.1871 4.77668 10.6866 4.85824 11.1668 4.76009L11.9534 4.60009L12.8068 6.08009L12.2734 6.68009C11.9491 7.04593 11.7701 7.51788 11.7701 8.00676C11.7701 8.49564 11.9491 8.96759 12.2734 9.33343ZM7.76009 5.33343C7.23268 5.33343 6.7171 5.48982 6.27857 5.78284C5.84004 6.07586 5.49825 6.49233 5.29641 6.9796C5.09458 7.46687 5.04177 8.00305 5.14467 8.52033C5.24756 9.03762 5.50154 9.51277 5.87448 9.88571C6.24742 10.2587 6.72257 10.5126 7.23985 10.6155C7.75714 10.7184 8.29331 10.6656 8.78058 10.4638C9.26785 10.2619 9.68433 9.92014 9.97735 9.48161C10.2704 9.04308 10.4268 8.52751 10.4268 8.00009C10.4268 7.29285 10.1458 6.61457 9.64571 6.11447C9.14561 5.61438 8.46734 5.33343 7.76009 5.33343ZM7.76009 9.33343C7.49639 9.33343 7.2386 9.25523 7.01933 9.10872C6.80007 8.96221 6.62917 8.75397 6.52825 8.51034C6.42734 8.2667 6.40093 7.99861 6.45238 7.73997C6.50383 7.48133 6.63081 7.24375 6.81728 7.05728C7.00375 6.87081 7.24133 6.74383 7.49997 6.69238C7.75861 6.64093 8.0267 6.66734 8.27034 6.76825C8.51397 6.86917 8.72221 7.04007 8.86872 7.25933C9.01523 7.4786 9.09343 7.73638 9.09343 8.00009C9.09343 8.35371 8.95295 8.69285 8.7029 8.9429C8.45285 9.19295 8.11372 9.33343 7.76009 9.33343Z" fill="black"/>
</svg>
