<svg width="current" height="current" viewBox="0 0 13 21" fill="current" xmlns="http://www.w3.org/2000/svg">
<path d="M4.54545 17.7727H8.18182V16.8636H4.54545V17.7727ZM1.81818 14.1364H10.9091V5.04545H1.81818V14.1364ZM1.81818 20.5C1.31818 20.5 0.890303 20.3221 0.534545 19.9664C0.178182 19.61 0 19.1818 0 18.6818V2.31818C0 1.81818 0.178182 1.39 0.534545 1.03364C0.890303 0.677879 1.31818 0.5 1.81818 0.5H10.9091C11.4091 0.5 11.8373 0.677879 12.1936 1.03364C12.5494 1.39 12.7273 1.81818 12.7273 2.31818V18.6818C12.7273 19.1818 12.5494 19.61 12.1936 19.9664C11.8373 20.3221 11.4091 20.5 10.9091 20.5H1.81818ZM1.81818 3.22727H10.9091V2.31818H1.81818V3.22727ZM1.81818 15.9545V18.6818H10.9091V15.9545H1.81818Z" fill="current"/>
</svg>
