<svg width="current" height="current" viewBox="0 0 19 18" fill="current" xmlns="http://www.w3.org/2000/svg">
<path d="M14 10.4998C13.5569 10.5028 13.1199 10.6038 12.7205 10.7958C12.3211 10.9877 11.9692 11.2657 11.69 11.6098L7.86499 9.84734C8.04483 9.29665 8.04483 8.70303 7.86499 8.15234L11.69 6.38984C12.1412 6.93432 12.7702 7.3019 13.4661 7.42772C14.162 7.55354 14.8799 7.42951 15.4932 7.07752C16.1065 6.72553 16.5758 6.1682 16.8182 5.5039C17.0605 4.8396 17.0605 4.11103 16.818 3.44677C16.5755 2.78252 16.1061 2.22527 15.4927 1.87339C14.8794 1.52151 14.1614 1.39761 13.4656 1.52356C12.7697 1.64951 12.1408 2.01721 11.6896 2.56176C11.2385 3.10632 10.9943 3.79273 11 4.49984C11.0022 4.67852 11.0198 4.85667 11.0525 5.03234L7.09249 6.85484C6.6703 6.44203 6.13567 6.16298 5.55559 6.05266C4.97552 5.94235 4.37578 6.00567 3.83153 6.23469C3.28728 6.46371 2.82271 6.84826 2.49604 7.34014C2.16937 7.83202 1.99512 8.40937 1.99512 8.99984C1.99512 9.59032 2.16937 10.1677 2.49604 10.6595C2.82271 11.1514 3.28728 11.536 3.83153 11.765C4.37578 11.994 4.97552 12.0573 5.55559 11.947C6.13567 11.8367 6.6703 11.5577 7.09249 11.1448L11.0525 12.9673C11.0198 13.143 11.0022 13.3212 11 13.4998C11 14.0932 11.1759 14.6732 11.5056 15.1666C11.8352 15.6599 12.3038 16.0444 12.8519 16.2715C13.4001 16.4985 14.0033 16.558 14.5853 16.4422C15.1672 16.3264 15.7018 16.0407 16.1213 15.6212C16.5409 15.2016 16.8266 14.6671 16.9423 14.0851C17.0581 13.5032 16.9987 12.9 16.7716 12.3518C16.5446 11.8036 16.16 11.3351 15.6667 11.0054C15.1734 10.6758 14.5933 10.4998 14 10.4998ZM14 2.99984C14.2967 2.99984 14.5867 3.08782 14.8333 3.25264C15.08 3.41746 15.2723 3.65173 15.3858 3.92582C15.4993 4.19991 15.529 4.50151 15.4712 4.79248C15.4133 5.08345 15.2704 5.35072 15.0607 5.5605C14.8509 5.77028 14.5836 5.91314 14.2926 5.97102C14.0017 6.0289 13.7001 5.99919 13.426 5.88566C13.1519 5.77213 12.9176 5.57987 12.7528 5.3332C12.588 5.08652 12.5 4.79651 12.5 4.49984C12.5 4.10202 12.658 3.72049 12.9393 3.43918C13.2206 3.15788 13.6022 2.99984 14 2.99984ZM4.99999 10.4998C4.70332 10.4998 4.41331 10.4119 4.16664 10.247C3.91996 10.0822 3.7277 9.84796 3.61417 9.57387C3.50064 9.29978 3.47093 8.99818 3.52881 8.70721C3.58669 8.41623 3.72955 8.14896 3.93933 7.93918C4.14911 7.7294 4.41638 7.58654 4.70736 7.52866C4.99833 7.47079 5.29993 7.50049 5.57402 7.61402C5.84811 7.72755 6.08237 7.91981 6.24719 8.16649C6.41202 8.41316 6.49999 8.70317 6.49999 8.99984C6.49999 9.39767 6.34196 9.7792 6.06065 10.0605C5.77935 10.3418 5.39782 10.4998 4.99999 10.4998ZM14 14.9998C13.7033 14.9998 13.4133 14.9119 13.1666 14.747C12.92 14.5822 12.7277 14.348 12.6142 14.0739C12.5006 13.7998 12.4709 13.4982 12.5288 13.2072C12.5867 12.9162 12.7296 12.649 12.9393 12.4392C13.1491 12.2294 13.4164 12.0865 13.7074 12.0287C13.9983 11.9708 14.2999 12.0005 14.574 12.114C14.8481 12.2276 15.0824 12.4198 15.2472 12.6665C15.412 12.9132 15.5 13.2032 15.5 13.4998C15.5 13.8977 15.342 14.2792 15.0607 14.5605C14.7793 14.8418 14.3978 14.9998 14 14.9998Z" fill="current"/>
</svg>
