<svg width="19" height="18" viewBox="0 0 19 18" fill="none" xmlns="http://www.w3.org/2000/svg">
<g clip-path="url(#clip0_4050_1092)">
<path d="M9.5 18C14.4706 18 18.5 13.9706 18.5 9C18.5 4.02944 14.4706 0 9.5 0C4.52944 0 0.5 4.02944 0.5 9C0.5 13.9706 4.52944 18 9.5 18Z" fill="#FF4D4D"/>
<path d="M15.499 6.06897C15.499 5.47923 15.0257 5 14.4432 5C14.1862 5 13.9505 5.09399 13.7679 5.24891L12.9703 6.06897L8.10252 10.978L5.31893 8.15487L5.23206 8.07781C5.04845 7.92288 4.81282 7.8289 4.55576 7.8289C3.97331 7.8289 3.5 8.30813 3.5 8.89787C3.5 9.15814 3.59283 9.39672 3.74583 9.58263L3.93385 9.77577L8.10252 14L15.1767 6.83008L15.2542 6.7527C15.4072 6.56679 15.5 6.32821 15.5 6.06897H15.499Z" fill="white"/>
</g>
<defs>
<clipPath id="clip0_4050_1092">
<rect x="0.5" width="18" height="18" fill="white"/>
</clipPath>
</defs>
</svg>
