<svg width="18" height="18" viewBox="0 0 18 18" fill="none" xmlns="http://www.w3.org/2000/svg">
<g clip-path="url(#clip0_4089_3110)">
<path d="M9 18C13.9706 18 18 13.9706 18 9C18 4.02944 13.9706 0 9 0C4.02944 0 0 4.02944 0 9C0 13.9706 4.02944 18 9 18Z" fill="#3689FF"/>
<path d="M14.999 6.06897C14.999 5.47923 14.5257 5 13.9432 5C13.6862 5 13.4505 5.09399 13.2679 5.24891L12.4703 6.06897L7.60252 10.978L4.81893 8.15487L4.73206 8.07781C4.54845 7.92288 4.31282 7.8289 4.05576 7.8289C3.47331 7.8289 3 8.30813 3 8.89787C3 9.15814 3.09283 9.39672 3.24583 9.58263L3.43385 9.77577L7.60252 14L14.6767 6.83008L14.7542 6.7527C14.9072 6.56679 15 6.32821 15 6.06897H14.999Z" fill="white"/>
</g>
<defs>
<clipPath id="clip0_4089_3110">
<rect width="18" height="18" fill="white"/>
</clipPath>
</defs>
</svg>
