<svg width="20" height="20" viewBox="0 0 20 20" fill="none" xmlns="http://www.w3.org/2000/svg">
<path d="M5.10463 17.3214H14.8948L15.435 5.89282H4.56445L5.10463 17.3214Z" fill="#F8F9FA"/>
<path d="M17.8563 4.28582H14.9992V2.5001C14.9992 1.71216 14.3585 1.07153 13.5706 1.07153H6.42773C5.63979 1.07153 4.99916 1.71216 4.99916 2.5001V4.28582H2.14202C1.74693 4.28582 1.42773 4.60502 1.42773 5.0001V5.71439C1.42773 5.8126 1.50809 5.89296 1.60631 5.89296H2.95452L3.50586 17.5671C3.54157 18.3282 4.17104 18.9287 4.9322 18.9287H15.0661C15.8295 18.9287 16.4568 18.3305 16.4925 17.5671L17.0438 5.89296H18.392C18.4902 5.89296 18.5706 5.8126 18.5706 5.71439V5.0001C18.5706 4.60502 18.2514 4.28582 17.8563 4.28582ZM6.60631 2.67868H13.392V4.28582H6.60631V2.67868ZM14.8943 17.3215H5.10407L4.5639 5.89296H15.4344L14.8943 17.3215Z" fill="#212223"/>
</svg>
