<svg width="19" height="18" viewBox="0 0 19 18" fill="none" xmlns="http://www.w3.org/2000/svg">
<path d="M17.5325 4.7175C17.4628 4.6472 17.3798 4.59141 17.2884 4.55333C17.197 4.51526 17.099 4.49565 17 4.49565C16.901 4.49565 16.803 4.51526 16.7116 4.55333C16.6202 4.59141 16.5372 4.6472 16.4675 4.7175L15.5 5.6925V1.5C15.5 1.30109 15.421 1.11032 15.2803 0.96967C15.1397 0.829018 14.9489 0.75 14.75 0.75C14.5511 0.75 14.3603 0.829018 14.2197 0.96967C14.079 1.11032 14 1.30109 14 1.5V5.6925L13.0325 4.7175C12.8913 4.57627 12.6997 4.49693 12.5 4.49693C12.3003 4.49693 12.1087 4.57627 11.9675 4.7175C11.8263 4.85873 11.7469 5.05027 11.7469 5.25C11.7469 5.44973 11.8263 5.64127 11.9675 5.7825L14.2175 8.0325C14.2888 8.10078 14.3729 8.1543 14.465 8.19C14.5548 8.22968 14.6518 8.25017 14.75 8.25017C14.8482 8.25017 14.9452 8.22968 15.035 8.19C15.1271 8.1543 15.2112 8.10078 15.2825 8.0325L17.5325 5.7825C17.6028 5.71278 17.6586 5.62983 17.6967 5.53843C17.7347 5.44704 17.7543 5.34901 17.7543 5.25C17.7543 5.15099 17.7347 5.05296 17.6967 4.96157C17.6586 4.87017 17.6028 4.78722 17.5325 4.7175ZM14.75 9.75C14.5511 9.75 14.3603 9.82902 14.2197 9.96967C14.079 10.1103 14 10.3011 14 10.5V10.785L12.89 9.675C12.4981 9.28616 11.9683 9.06797 11.4163 9.06797C10.8642 9.06797 10.3344 9.28616 9.9425 9.675L9.4175 10.2L7.5575 8.34C7.16009 7.9617 6.63242 7.75071 6.08375 7.75071C5.53508 7.75071 5.00741 7.9617 4.61 8.34L3.5 9.45V5.25C3.5 5.05109 3.57902 4.86032 3.71967 4.71967C3.86032 4.57902 4.05109 4.5 4.25 4.5H10.25C10.4489 4.5 10.6397 4.42098 10.7803 4.28033C10.921 4.13968 11 3.94891 11 3.75C11 3.55109 10.921 3.36032 10.7803 3.21967C10.6397 3.07902 10.4489 3 10.25 3H4.25C3.65326 3 3.08097 3.23705 2.65901 3.65901C2.23705 4.08097 2 4.65326 2 5.25V14.25C2 14.8467 2.23705 15.419 2.65901 15.841C3.08097 16.2629 3.65326 16.5 4.25 16.5H13.25C13.8467 16.5 14.419 16.2629 14.841 15.841C15.2629 15.419 15.5 14.8467 15.5 14.25V10.5C15.5 10.3011 15.421 10.1103 15.2803 9.96967C15.1397 9.82902 14.9489 9.75 14.75 9.75ZM4.25 15C4.05109 15 3.86032 14.921 3.71967 14.7803C3.57902 14.6397 3.5 14.4489 3.5 14.25V11.5725L5.675 9.3975C5.78518 9.2925 5.93155 9.23393 6.08375 9.23393C6.23595 9.23393 6.38232 9.2925 6.4925 9.3975L8.87 11.775L12.095 15H4.25ZM14 14.25C13.9989 14.3936 13.9516 14.533 13.865 14.6475L10.4825 11.25L11.0075 10.725C11.0613 10.6701 11.1255 10.6265 11.1963 10.5968C11.2671 10.567 11.3432 10.5517 11.42 10.5517C11.4968 10.5517 11.5729 10.567 11.6437 10.5968C11.7146 10.6265 11.7787 10.6701 11.8325 10.725L14 12.9075V14.25Z" fill="#5C5E62"/>
</svg>
