<svg width="25" height="24" viewBox="0 0 25 24" fill="none" xmlns="http://www.w3.org/2000/svg">
<path d="M10.5 18C10.7652 18 11.0196 17.8946 11.2071 17.7071C11.3946 17.5196 11.5 17.2652 11.5 17V11C11.5 10.7348 11.3946 10.4804 11.2071 10.2929C11.0196 10.1054 10.7652 10 10.5 10C10.2348 10 9.98043 10.1054 9.79289 10.2929C9.60536 10.4804 9.5 10.7348 9.5 11V17C9.5 17.2652 9.60536 17.5196 9.79289 17.7071C9.98043 17.8946 10.2348 18 10.5 18ZM20.5 6H16.5V5C16.5 4.20435 16.1839 3.44129 15.6213 2.87868C15.0587 2.31607 14.2956 2 13.5 2H11.5C10.7044 2 9.94129 2.31607 9.37868 2.87868C8.81607 3.44129 8.5 4.20435 8.5 5V6H4.5C4.23478 6 3.98043 6.10536 3.79289 6.29289C3.60536 6.48043 3.5 6.73478 3.5 7C3.5 7.26522 3.60536 7.51957 3.79289 7.70711C3.98043 7.89464 4.23478 8 4.5 8H5.5V19C5.5 19.7956 5.81607 20.5587 6.37868 21.1213C6.94129 21.6839 7.70435 22 8.5 22H16.5C17.2956 22 18.0587 21.6839 18.6213 21.1213C19.1839 20.5587 19.5 19.7956 19.5 19V8H20.5C20.7652 8 21.0196 7.89464 21.2071 7.70711C21.3946 7.51957 21.5 7.26522 21.5 7C21.5 6.73478 21.3946 6.48043 21.2071 6.29289C21.0196 6.10536 20.7652 6 20.5 6ZM10.5 5C10.5 4.73478 10.6054 4.48043 10.7929 4.29289C10.9804 4.10536 11.2348 4 11.5 4H13.5C13.7652 4 14.0196 4.10536 14.2071 4.29289C14.3946 4.48043 14.5 4.73478 14.5 5V6H10.5V5ZM17.5 19C17.5 19.2652 17.3946 19.5196 17.2071 19.7071C17.0196 19.8946 16.7652 20 16.5 20H8.5C8.23478 20 7.98043 19.8946 7.79289 19.7071C7.60536 19.5196 7.5 19.2652 7.5 19V8H17.5V19ZM14.5 18C14.7652 18 15.0196 17.8946 15.2071 17.7071C15.3946 17.5196 15.5 17.2652 15.5 17V11C15.5 10.7348 15.3946 10.4804 15.2071 10.2929C15.0196 10.1054 14.7652 10 14.5 10C14.2348 10 13.9804 10.1054 13.7929 10.2929C13.6054 10.4804 13.5 10.7348 13.5 11V17C13.5 17.2652 13.6054 17.5196 13.7929 17.7071C13.9804 17.8946 14.2348 18 14.5 18Z" fill="#FF4D4D"/>
</svg>
