<svg width="current" height="current" viewBox="0 0 20 21" fill="current" xmlns="http://www.w3.org/2000/svg">
<path d="M12.5013 9.66699H10.8346V6.33366C10.8346 6.11265 10.7468 5.90068 10.5906 5.7444C10.4343 5.58812 10.2223 5.50033 10.0013 5.50033C9.78029 5.50033 9.56833 5.58812 9.41205 5.7444C9.25577 5.90068 9.16797 6.11265 9.16797 6.33366V10.5003C9.16797 10.7213 9.25577 10.9333 9.41205 11.0896C9.56833 11.2459 9.78029 11.3337 10.0013 11.3337H12.5013C12.7223 11.3337 12.9343 11.2459 13.0906 11.0896C13.2468 10.9333 13.3346 10.7213 13.3346 10.5003C13.3346 10.2793 13.2468 10.0674 13.0906 9.91107C12.9343 9.75479 12.7223 9.66699 12.5013 9.66699ZM10.0013 2.16699C8.35313 2.16699 6.74196 2.65573 5.37155 3.57141C4.00114 4.48709 2.93304 5.78858 2.30231 7.3113C1.67158 8.83401 1.50655 10.5096 1.8281 12.1261C2.14964 13.7426 2.94331 15.2274 4.10875 16.3929C5.27419 17.5583 6.75905 18.352 8.37555 18.6735C9.99206 18.9951 11.6676 18.8301 13.1903 18.1993C14.7131 17.5686 16.0145 16.5005 16.9302 15.1301C17.8459 13.7597 18.3346 12.1485 18.3346 10.5003C18.3322 8.29093 17.4535 6.17273 15.8912 4.61045C14.3289 3.04817 12.2107 2.16942 10.0013 2.16699ZM10.0013 17.167C8.68276 17.167 7.39383 16.776 6.2975 16.0435C5.20118 15.3109 4.34669 14.2697 3.84211 13.0515C3.33752 11.8334 3.2055 10.4929 3.46274 9.19972C3.71997 7.90652 4.35491 6.71863 5.28726 5.78628C6.21961 4.85393 7.4075 4.21899 8.7007 3.96176C9.99391 3.70452 11.3344 3.83654 12.5525 4.34113C13.7707 4.84571 14.8119 5.7002 15.5444 6.79652C16.277 7.89285 16.668 9.18178 16.668 10.5003C16.6658 12.2678 15.9627 13.9622 14.7129 15.2119C13.4631 16.4617 11.7687 17.1648 10.0013 17.167Z" fill="current"/>
</svg>
