<svg width="31" height="30" viewBox="0 0 31 30" fill="none" xmlns="http://www.w3.org/2000/svg">
<rect x="1" y="0.5" width="29" height="29" rx="14.5" fill="white"/>
<rect x="1" y="0.5" width="29" height="29" rx="14.5" stroke="#EBECEE"/>
<path d="M21.625 14.125H16.375V8.875C16.375 8.64294 16.2828 8.42038 16.1187 8.25628C15.9546 8.09219 15.7321 8 15.5 8C15.2679 8 15.0454 8.09219 14.8813 8.25628C14.7172 8.42038 14.625 8.64294 14.625 8.875V14.125H9.375C9.14294 14.125 8.92038 14.2172 8.75628 14.3813C8.59219 14.5454 8.5 14.7679 8.5 15C8.5 15.2321 8.59219 15.4546 8.75628 15.6187C8.92038 15.7828 9.14294 15.875 9.375 15.875H14.625V21.125C14.625 21.3571 14.7172 21.5796 14.8813 21.7437C15.0454 21.9078 15.2679 22 15.5 22C15.7321 22 15.9546 21.9078 16.1187 21.7437C16.2828 21.5796 16.375 21.3571 16.375 21.125V15.875H21.625C21.8571 15.875 22.0796 15.7828 22.2437 15.6187C22.4078 15.4546 22.5 15.2321 22.5 15C22.5 14.7679 22.4078 14.5454 22.2437 14.3813C22.0796 14.2172 21.8571 14.125 21.625 14.125Z" fill="#5C5E62"/>
</svg>
