<svg width="16" height="16" viewBox="0 0 16 16" fill="none" xmlns="http://www.w3.org/2000/svg">
<path d="M7.99998 1.3335C6.2909 1.33837 4.64897 1.99944 3.41331 3.18016V2.00016C3.41331 1.82335 3.34308 1.65378 3.21805 1.52876C3.09303 1.40373 2.92346 1.3335 2.74665 1.3335C2.56984 1.3335 2.40027 1.40373 2.27524 1.52876C2.15022 1.65378 2.07998 1.82335 2.07998 2.00016V5.00016C2.07998 5.17697 2.15022 5.34654 2.27524 5.47157C2.40027 5.59659 2.56984 5.66683 2.74665 5.66683H5.74665C5.92346 5.66683 6.09303 5.59659 6.21805 5.47157C6.34308 5.34654 6.41331 5.17697 6.41331 5.00016C6.41331 4.82335 6.34308 4.65378 6.21805 4.52876C6.09303 4.40373 5.92346 4.3335 5.74665 4.3335H4.14665C5.00383 3.43774 6.14632 2.8686 7.37767 2.72394C8.60902 2.57929 9.8523 2.86815 10.8937 3.54086C11.9352 4.21357 12.7097 5.2281 13.0842 6.41002C13.4587 7.59194 13.4096 8.8674 12.9456 10.0171C12.4815 11.1668 11.6314 12.1189 10.5414 12.7097C9.45142 13.3005 8.18964 13.4931 6.97302 13.2544C5.7564 13.0157 4.66096 12.3605 3.87504 11.4016C3.08912 10.4427 2.66184 9.23997 2.66665 8.00016C2.66665 7.82335 2.59641 7.65378 2.47138 7.52876C2.34636 7.40373 2.17679 7.3335 1.99998 7.3335C1.82317 7.3335 1.6536 7.40373 1.52858 7.52876C1.40355 7.65378 1.33331 7.82335 1.33331 8.00016C1.33331 9.31871 1.72431 10.6076 2.45685 11.704C3.18939 12.8003 4.23058 13.6548 5.44876 14.1594C6.66693 14.6639 8.00738 14.796 9.30058 14.5387C10.5938 14.2815 11.7817 13.6466 12.714 12.7142C13.6464 11.7819 14.2813 10.594 14.5385 9.30077C14.7958 8.00756 14.6638 6.66711 14.1592 5.44894C13.6546 4.23077 12.8001 3.18957 11.7038 2.45703C10.6075 1.72449 9.31852 1.3335 7.99998 1.3335ZM7.99998 5.3335C7.82317 5.3335 7.6536 5.40373 7.52858 5.52876C7.40355 5.65378 7.33331 5.82335 7.33331 6.00016V8.66683C7.33331 8.84364 7.40355 9.01321 7.52858 9.13823C7.6536 9.26326 7.82317 9.3335 7.99998 9.3335H9.52858C9.70539 9.3335 9.87496 9.26326 9.99998 9.13823C10.125 9.01321 10.1952 8.84364 10.1952 8.66683C10.1952 8.49002 10.125 8.32045 9.99998 8.19543C9.87496 8.0704 9.70539 8.00016 9.52858 8.00016H8.66665V6.00016C8.66665 5.82335 8.59641 5.65378 8.47138 5.52876C8.34636 5.40373 8.17679 5.3335 7.99998 5.3335Z" fill="#5C5E62"/>
</svg>
