<svg width="24" height="24" viewBox="0 0 24 24" fill="none" xmlns="http://www.w3.org/2000/svg">
<path fill-rule="evenodd" clip-rule="evenodd" d="M19.3167 3.8H6.85003C6.68434 3.8 6.55003 3.93431 6.55003 4.1V19.9C6.55003 20.0657 6.68434 20.2 6.85003 20.2H19.3167C19.4824 20.2 19.6167 20.0657 19.6167 19.9V4.1C19.6167 3.93432 19.4824 3.8 19.3167 3.8ZM6.85003 2C5.69023 2 4.75003 2.9402 4.75003 4.1V5.33418H3.52783C2.97555 5.33418 2.52783 5.78189 2.52783 6.33418C2.52783 6.88646 2.97555 7.33418 3.52783 7.33418H4.75003V10.8888H3.52783C2.97555 10.8888 2.52783 11.3365 2.52783 11.8888C2.52783 12.4411 2.97555 12.8888 3.52783 12.8888H4.75003V16.4455H3.52783C2.97555 16.4455 2.52783 16.8932 2.52783 17.4455C2.52783 17.9978 2.97555 18.4455 3.52783 18.4455H4.75003V19.9C4.75003 21.0598 5.69023 22 6.85003 22H19.3167C20.4765 22 21.4167 21.0598 21.4167 19.9V4.1C21.4167 2.9402 20.4765 2 19.3167 2H6.85003ZM16.9721 6.44551H9.19434V8.44551H16.9721V6.44551Z" fill="#BFC5C9"/>
</svg>
