<svg width="40" height="40" viewBox="0 0 40 40" fill="none" xmlns="http://www.w3.org/2000/svg">
<rect x="1" y="1" width="38" height="38" rx="19" stroke="white" stroke-width="2"/>
<path d="M27.8563 14.2856H24.9992V12.4999C24.9992 11.7119 24.3585 11.0713 23.5706 11.0713H16.4277C15.6398 11.0713 14.9992 11.7119 14.9992 12.4999V14.2856H12.142C11.7469 14.2856 11.4277 14.6048 11.4277 14.9999V15.7141C11.4277 15.8124 11.5081 15.8927 11.6063 15.8927H12.9545L13.5059 27.5668C13.5416 28.328 14.171 28.9284 14.9322 28.9284H25.0661C25.8295 28.9284 26.4568 28.3302 26.4925 27.5668L27.0438 15.8927H28.392C28.4902 15.8927 28.5706 15.8124 28.5706 15.7141V14.9999C28.5706 14.6048 28.2514 14.2856 27.8563 14.2856ZM16.6063 12.6784H23.392V14.2856H16.6063V12.6784ZM24.8943 27.3213H15.1041L14.5639 15.8927H25.4344L24.8943 27.3213Z" fill="white"/>
</svg>
