<svg width="20" height="21" viewBox="0 0 20 21" fill="none" xmlns="http://www.w3.org/2000/svg">
<path d="M6.6665 10.5002C6.6665 10.7212 6.7543 10.9331 6.91058 11.0894C7.06686 11.2457 7.27882 11.3335 7.49984 11.3335H12.4998C12.7209 11.3335 12.9328 11.2457 13.0891 11.0894C13.2454 10.9331 13.3332 10.7212 13.3332 10.5002C13.3332 10.2791 13.2454 10.0672 13.0891 9.91091C12.9328 9.75463 12.7209 9.66683 12.4998 9.66683H7.49984C7.27882 9.66683 7.06686 9.75463 6.91058 9.91091C6.7543 10.0672 6.6665 10.2791 6.6665 10.5002ZM8.33317 13.0002H5.83317C5.17013 13.0002 4.53424 12.7368 4.0654 12.2679C3.59656 11.7991 3.33317 11.1632 3.33317 10.5002C3.33317 9.83712 3.59656 9.20124 4.0654 8.7324C4.53424 8.26355 5.17013 8.00016 5.83317 8.00016H8.33317C8.55418 8.00016 8.76615 7.91237 8.92243 7.75608C9.07871 7.5998 9.1665 7.38784 9.1665 7.16683C9.1665 6.94582 9.07871 6.73385 8.92243 6.57757C8.76615 6.42129 8.55418 6.3335 8.33317 6.3335H5.83317C4.7281 6.3335 3.66829 6.77248 2.88689 7.55388C2.10549 8.33529 1.6665 9.39509 1.6665 10.5002C1.6665 11.6052 2.10549 12.665 2.88689 13.4464C3.66829 14.2278 4.7281 14.6668 5.83317 14.6668H8.33317C8.55418 14.6668 8.76615 14.579 8.92243 14.4228C9.07871 14.2665 9.1665 14.0545 9.1665 13.8335C9.1665 13.6125 9.07871 13.4005 8.92243 13.2442C8.76615 13.088 8.55418 13.0002 8.33317 13.0002ZM14.1665 6.3335H11.6665C11.4455 6.3335 11.2335 6.42129 11.0772 6.57757C10.921 6.73385 10.8332 6.94582 10.8332 7.16683C10.8332 7.38784 10.921 7.5998 11.0772 7.75608C11.2335 7.91237 11.4455 8.00016 11.6665 8.00016H14.1665C14.8295 8.00016 15.4654 8.26355 15.9343 8.7324C16.4031 9.20124 16.6665 9.83712 16.6665 10.5002C16.6665 11.1632 16.4031 11.7991 15.9343 12.2679C15.4654 12.7368 14.8295 13.0002 14.1665 13.0002H11.6665C11.4455 13.0002 11.2335 13.088 11.0772 13.2442C10.921 13.4005 10.8332 13.6125 10.8332 13.8335C10.8332 14.0545 10.921 14.2665 11.0772 14.4228C11.2335 14.579 11.4455 14.6668 11.6665 14.6668H14.1665C15.2716 14.6668 16.3314 14.2278 17.1128 13.4464C17.8942 12.665 18.3332 11.6052 18.3332 10.5002C18.3332 9.39509 17.8942 8.33529 17.1128 7.55388C16.3314 6.77248 15.2716 6.3335 14.1665 6.3335Z" fill="#96999C"/>
</svg>
