<svg width="24" height="24" viewBox="0 0 24 24" fill="none" xmlns="http://www.w3.org/2000/svg">
<g clip-path="url(#clip0_3326_3939)">
<path d="M20.2497 3.53185C20.4278 3.48581 20.6151 3.48975 20.791 3.54325C20.967 3.59676 21.1247 3.69774 21.247 3.83511C21.3693 3.97248 21.4513 4.14091 21.4841 4.32187C21.5168 4.50284 21.4991 4.68934 21.4327 4.86085L15.4327 20.3609C15.3734 20.5144 15.277 20.6509 15.1523 20.7582C15.0275 20.8656 14.8782 20.9405 14.7175 20.9763C14.5569 21.0121 14.3899 21.0077 14.2314 20.9635C14.0728 20.9193 13.9276 20.8366 13.8087 20.7229L10.4267 17.4879L9.2237 18.6899C8.5877 19.3259 7.4997 18.8759 7.4997 17.9759V14.6879L2.3087 9.72285C2.17991 9.59963 2.08639 9.44422 2.03783 9.27272C1.98927 9.10121 1.98743 8.91984 2.0325 8.74739C2.07758 8.57494 2.16793 8.41767 2.29421 8.29186C2.42048 8.16606 2.57809 8.07629 2.7507 8.03185L20.2497 3.53185ZM18.1357 7.83685L10.1377 14.4439L14.1077 18.2419L18.1357 7.83685ZM16.5577 6.54685L4.99071 9.51985L8.6827 13.0499L16.5577 6.54485V6.54685Z"/>
</g>
<defs>
<clipPath id="clip0_3326_3939">
<rect width="24" height="24" fill="white"/>
</clipPath>
</defs>
</svg>
