<svg width="16" height="15" viewBox="0 0 16 15" fill="none" xmlns="http://www.w3.org/2000/svg">
<path d="M10.7825 8.03272C11.5178 7.45421 12.0545 6.66091 12.3179 5.76317C12.5814 4.86544 12.5584 3.90791 12.2523 3.02382C11.9462 2.13972 11.3722 1.37301 10.6101 0.830357C9.84791 0.287705 8.93559 -0.00390625 8 -0.00390625C7.06441 -0.00390625 6.15208 0.287705 5.38994 0.830357C4.62781 1.37301 4.05376 2.13972 3.74766 3.02382C3.44156 3.90791 3.41863 4.86544 3.68207 5.76317C3.9455 6.66091 4.4822 7.45421 5.2175 8.03272C3.95756 8.5375 2.85821 9.37473 2.03667 10.4552C1.21512 11.5356 0.70217 12.8187 0.552498 14.1677C0.541663 14.2662 0.550335 14.3659 0.578017 14.461C0.605698 14.5561 0.651848 14.6449 0.713831 14.7222C0.839012 14.8783 1.02109 14.9783 1.22 15.0002C1.41891 15.0221 1.61837 14.9641 1.77449 14.8389C1.93062 14.7137 2.03062 14.5316 2.0525 14.3327C2.21719 12.8666 2.91626 11.5126 4.01616 10.5293C5.11606 9.54604 6.53967 9.00249 8.015 9.00249C9.49032 9.00249 10.9139 9.54604 12.0138 10.5293C13.1137 11.5126 13.8128 12.8666 13.9775 14.3327C13.9979 14.517 14.0858 14.6872 14.2243 14.8105C14.3628 14.9337 14.5421 15.0013 14.7275 15.0002H14.81C15.0066 14.9776 15.1863 14.8782 15.3099 14.7237C15.4335 14.5691 15.4911 14.372 15.47 14.1752C15.3196 12.8224 14.8039 11.536 13.9781 10.4539C13.1524 9.37178 12.0477 8.53482 10.7825 8.03272ZM8 7.50022C7.40665 7.50022 6.82663 7.32427 6.33329 6.99462C5.83994 6.66498 5.45542 6.19644 5.22836 5.64827C5.0013 5.10009 4.94189 4.49689 5.05764 3.91494C5.1734 3.333 5.45912 2.79845 5.87868 2.37889C6.29823 1.95934 6.83278 1.67362 7.41473 1.55786C7.99667 1.4421 8.59987 1.50151 9.14805 1.72858C9.69623 1.95564 10.1648 2.34016 10.4944 2.8335C10.8241 3.32685 11 3.90687 11 4.50022C11 5.29586 10.6839 6.05893 10.1213 6.62154C9.55871 7.18414 8.79565 7.50022 8 7.50022Z" fill="#96999C"/>
</svg>
