<svg width="14" height="15" viewBox="0 0 14 15" fill="none" xmlns="http://www.w3.org/2000/svg">
<path d="M12.25 0.75H1.75C0.925 0.75 0.25 1.425 0.25 2.25V12.75C0.25 13.575 0.925 14.25 1.75 14.25H12.25C13.075 14.25 13.75 13.575 13.75 12.75V2.25C13.75 1.425 13.075 0.75 12.25 0.75ZM10.75 12.75H3.25V12.57C4.315 11.715 5.62 11.25 7 11.25C8.38 11.25 9.685 11.715 10.75 12.57V12.75ZM12.25 11.895C10.9 10.5675 9.0475 9.75 7 9.75C4.9525 9.75 3.1 10.5675 1.75 11.895V2.25H12.25V11.895ZM7 8.25C8.4475 8.25 9.625 7.0725 9.625 5.625C9.625 4.1775 8.4475 3 7 3C5.5525 3 4.375 4.1775 4.375 5.625C4.375 7.0725 5.5525 8.25 7 8.25ZM7 4.5C7.6225 4.5 8.125 5.0025 8.125 5.625C8.125 6.2475 7.6225 6.75 7 6.75C6.3775 6.75 5.875 6.2475 5.875 5.625C5.875 5.0025 6.3775 4.5 7 4.5Z" fill="#5C5E62"/>
</svg>
