<svg width="16" height="14" viewBox="0 0 16 14" fill="none" xmlns="http://www.w3.org/2000/svg">
<path d="M14.1875 0.148889C14.3211 0.114354 14.4615 0.117313 14.5935 0.15744C14.7255 0.197567 14.8438 0.273309 14.9355 0.376335C15.0272 0.479361 15.0887 0.605682 15.1133 0.741406C15.1379 0.877131 15.1245 1.017 15.0748 1.14564L10.5748 12.7706C10.5303 12.8858 10.458 12.9881 10.3645 13.0687C10.2709 13.1492 10.1589 13.2054 10.0384 13.2322C9.91792 13.2591 9.79267 13.2558 9.67376 13.2226C9.55485 13.1895 9.44597 13.1275 9.35677 13.0421L6.82027 10.6159L5.91802 11.5174C5.44102 11.9944 4.62502 11.6569 4.62502 10.9819V8.51589L0.731773 4.79214C0.635175 4.69972 0.565035 4.58317 0.528614 4.45454C0.492193 4.32591 0.490815 4.18988 0.524622 4.06054C0.55843 3.9312 0.626194 3.81325 0.720899 3.7189C0.815604 3.62454 0.933808 3.55722 1.06327 3.52389L14.1875 0.148889ZM12.602 3.37764L6.60352 8.33289L9.58102 11.1814L12.602 3.37764ZM11.4185 2.41014L2.74327 4.63989L5.51227 7.28739L11.4185 2.40864V2.41014Z" fill="#96999C"/>
</svg>
