<svg width="18" height="18" viewBox="0 0 18 18" fill="none" xmlns="http://www.w3.org/2000/svg">
<g clip-path="url(#clip0_653_387)">
<path d="M14.25 2.25H3.75C2.925 2.25 2.25 2.925 2.25 3.75V14.25C2.25 15.075 2.925 15.75 3.75 15.75H14.25C15.075 15.75 15.75 15.075 15.75 14.25V3.75C15.75 2.925 15.075 2.25 14.25 2.25ZM12.75 14.25H5.25V14.07C6.315 13.215 7.62 12.75 9 12.75C10.38 12.75 11.685 13.215 12.75 14.07V14.25ZM14.25 13.395C12.9 12.0675 11.0475 11.25 9 11.25C6.9525 11.25 5.1 12.0675 3.75 13.395V3.75H14.25V13.395ZM9 9.75C10.4475 9.75 11.625 8.5725 11.625 7.125C11.625 5.6775 10.4475 4.5 9 4.5C7.5525 4.5 6.375 5.6775 6.375 7.125C6.375 8.5725 7.5525 9.75 9 9.75ZM9 6C9.6225 6 10.125 6.5025 10.125 7.125C10.125 7.7475 9.6225 8.25 9 8.25C8.3775 8.25 7.875 7.7475 7.875 7.125C7.875 6.5025 8.3775 6 9 6Z" fill="#050606"/>
</g>
<defs>
<clipPath id="clip0_653_387">
<rect width="18" height="18" fill="white"/>
</clipPath>
</defs>
</svg>
