<svg width="18" height="19" viewBox="0 0 18 19" fill="none" xmlns="http://www.w3.org/2000/svg">
<g clip-path="url(#clip0_1208_444)">
<path d="M14.25 2.75H3.75C2.925 2.75 2.25 3.425 2.25 4.25V14.75C2.25 15.575 2.925 16.25 3.75 16.25H14.25C15.075 16.25 15.75 15.575 15.75 14.75V4.25C15.75 3.425 15.075 2.75 14.25 2.75ZM12.75 14.75H5.25V14.57C6.315 13.715 7.62 13.25 9 13.25C10.38 13.25 11.685 13.715 12.75 14.57V14.75ZM14.25 13.895C12.9 12.5675 11.0475 11.75 9 11.75C6.9525 11.75 5.1 12.5675 3.75 13.895V4.25H14.25V13.895ZM9 10.25C10.4475 10.25 11.625 9.0725 11.625 7.625C11.625 6.1775 10.4475 5 9 5C7.5525 5 6.375 6.1775 6.375 7.625C6.375 9.0725 7.5525 10.25 9 10.25ZM9 6.5C9.6225 6.5 10.125 7.0025 10.125 7.625C10.125 8.2475 9.6225 8.75 9 8.75C8.3775 8.75 7.875 8.2475 7.875 7.625C7.875 7.0025 8.3775 6.5 9 6.5Z" fill="#050606"/>
</g>
<defs>
<clipPath id="clip0_1208_444">
<rect width="18" height="18" fill="white" transform="translate(0 0.5)"/>
</clipPath>
</defs>
</svg>
