<svg width="20" height="21" viewBox="0 0 20 21" fill="none" xmlns="http://www.w3.org/2000/svg">
<path d="M15.8332 3.00016H14.9998V2.16683C14.9998 1.94582 14.912 1.73385 14.7558 1.57757C14.5995 1.42129 14.3875 1.3335 14.1665 1.3335C13.9455 1.3335 13.7335 1.42129 13.5772 1.57757C13.421 1.73385 13.3332 1.94582 13.3332 2.16683V3.00016H6.6665V2.16683C6.6665 1.94582 6.57871 1.73385 6.42243 1.57757C6.26615 1.42129 6.05418 1.3335 5.83317 1.3335C5.61216 1.3335 5.4002 1.42129 5.24392 1.57757C5.08764 1.73385 4.99984 1.94582 4.99984 2.16683V3.00016H4.1665C3.50346 3.00016 2.86758 3.26355 2.39874 3.7324C1.9299 4.20124 1.6665 4.83712 1.6665 5.50016V17.1668C1.6665 17.8299 1.9299 18.4658 2.39874 18.9346C2.86758 19.4034 3.50346 19.6668 4.1665 19.6668H15.8332C16.4962 19.6668 17.1321 19.4034 17.6009 18.9346C18.0698 18.4658 18.3332 17.8299 18.3332 17.1668V5.50016C18.3332 4.83712 18.0698 4.20124 17.6009 3.7324C17.1321 3.26355 16.4962 3.00016 15.8332 3.00016ZM16.6665 17.1668C16.6665 17.3878 16.5787 17.5998 16.4224 17.7561C16.2661 17.9124 16.0542 18.0002 15.8332 18.0002H4.1665C3.94549 18.0002 3.73353 17.9124 3.57725 17.7561C3.42097 17.5998 3.33317 17.3878 3.33317 17.1668V9.66683H16.6665V17.1668ZM16.6665 8.00016H3.33317V5.50016C3.33317 5.27915 3.42097 5.06719 3.57725 4.91091C3.73353 4.75463 3.94549 4.66683 4.1665 4.66683H4.99984H5.58909H6.17835H6.42243H6.6665H13.3332H13.5058H13.7498H14.1665H14.7558H14.9998H15.8332C16.0542 4.66683 16.2661 4.75463 16.4224 4.91091C16.5787 5.06719 16.6665 5.27915 16.6665 5.50016V8.00016Z" fill="#212223"/>
</svg>
