<svg width="12" height="12" viewBox="0 0 12 12" fill="none" xmlns="http://www.w3.org/2000/svg">
<path d="M5.41667 3.66667V6.58333L7.89583 8.05333L8.345 7.30667L6.29167 6.0875V3.66667H5.41667ZM11.25 4.83333V0.75L9.71 2.29C8.765 1.33917 7.4525 0.75 6 0.75C3.10083 0.75 0.75 3.10083 0.75 6C0.75 8.89917 3.10083 11.25 6 11.25C8.89917 11.25 11.25 8.89917 11.25 6H10.0833C10.0833 8.25167 8.25167 10.0833 6 10.0833C3.74833 10.0833 1.91667 8.25167 1.91667 6C1.91667 3.74833 3.74833 1.91667 6 1.91667C7.12583 1.91667 8.14667 2.3775 8.8875 3.1125L7.16667 4.83333H11.25Z" fill="#96999C"/>
</svg>
