<svg width="20" height="21" viewBox="0 0 20 21" fill="none" xmlns="http://www.w3.org/2000/svg">
<g clip-path="url(#clip0_655_458)">
<path d="M4.83333 9.66699H6.5V11.3337H4.83333V9.66699ZM16.5 5.50033V17.167C16.5 18.0837 15.75 18.8337 14.8333 18.8337H3.16667C2.24167 18.8337 1.5 18.0837 1.5 17.167L1.50833 5.50033C1.50833 4.58366 2.24167 3.83366 3.16667 3.83366H4V2.16699H5.66667V3.83366H12.3333V2.16699H14V3.83366H14.8333C15.75 3.83366 16.5 4.58366 16.5 5.50033ZM3.16667 7.16699H14.8333V5.50033H3.16667V7.16699ZM14.8333 17.167V8.83366H3.16667V17.167H14.8333ZM11.5 11.3337H13.1667V9.66699H11.5V11.3337ZM8.16667 11.3337H9.83333V9.66699H8.16667V11.3337Z" fill="#050606"/>
</g>
<defs>
<clipPath id="clip0_655_458">
<rect width="20" height="20" fill="white" transform="translate(0 0.5)"/>
</clipPath>
</defs>
</svg>
