<svg width="16" height="16" viewBox="0 0 16 16" fill="none" xmlns="http://www.w3.org/2000/svg">
<path d="M12.6666 1.99984H12V1.33317C12 1.15636 11.9297 0.98679 11.8047 0.861766C11.6797 0.736742 11.5101 0.666504 11.3333 0.666504C11.1565 0.666504 10.9869 0.736742 10.8619 0.861766C10.7369 0.98679 10.6666 1.15636 10.6666 1.33317V1.99984H5.33331V1.33317C5.33331 1.15636 5.26308 0.98679 5.13805 0.861766C5.01303 0.736742 4.84346 0.666504 4.66665 0.666504C4.48984 0.666504 4.32027 0.736742 4.19524 0.861766C4.07022 0.98679 3.99998 1.15636 3.99998 1.33317V1.99984H3.33331C2.80288 1.99984 2.29417 2.21055 1.9191 2.58562C1.54403 2.9607 1.33331 3.4694 1.33331 3.99984V13.3332C1.33331 13.8636 1.54403 14.3723 1.9191 14.7474C2.29417 15.1225 2.80288 15.3332 3.33331 15.3332H12.6666C13.1971 15.3332 13.7058 15.1225 14.0809 14.7474C14.4559 14.3723 14.6666 13.8636 14.6666 13.3332V3.99984C14.6666 3.4694 14.4559 2.9607 14.0809 2.58562C13.7058 2.21055 13.1971 1.99984 12.6666 1.99984ZM13.3333 13.3332C13.3333 13.51 13.2631 13.6796 13.1381 13.8046C13.013 13.9296 12.8435 13.9998 12.6666 13.9998H3.33331C3.1565 13.9998 2.98693 13.9296 2.86191 13.8046C2.73688 13.6796 2.66665 13.51 2.66665 13.3332V7.33317H13.3333V13.3332ZM13.3333 5.99984H2.66665V3.99984C2.66665 3.82303 2.73688 3.65346 2.86191 3.52843C2.98693 3.40341 3.1565 3.33317 3.33331 3.33317H3.99998H4.47138H4.94279H5.13805H5.33331H10.6666H10.8047H11H11.3333H11.8047H12H12.6666C12.8435 3.33317 13.013 3.40341 13.1381 3.52843C13.2631 3.65346 13.3333 3.82303 13.3333 3.99984V5.99984Z" fill="#5C5E62"/>
</svg>
