<svg width="20" height="21" viewBox="0 0 20 21" fill="none" xmlns="http://www.w3.org/2000/svg">
<g clip-path="url(#clip0_655_461)">
<path d="M2.49992 5.49984L9.16658 9.6665L15.8333 5.49984V7.99984H17.4999V3.83317C17.4999 2.9165 16.7499 2.1665 15.8333 2.1665H2.49992C1.58325 2.1665 0.841585 2.9165 0.841585 3.83317L0.833252 13.8332C0.833252 14.7498 1.58325 15.4998 2.49992 15.4998H10.8333V13.8332H2.49992V5.49984ZM15.8333 3.83317L9.16658 7.99984L2.49992 3.83317H15.8333Z" fill="#050606"/>
<path d="M17.5 12.1665V15.4998C17.5 16.4165 16.75 17.1665 15.8333 17.1665C14.9167 17.1665 14.1667 16.4165 14.1667 15.4998V11.7498C14.1667 11.5165 14.35 11.3332 14.5833 11.3332C14.8167 11.3332 15 11.5165 15 11.7498V15.4998H16.6667V11.7498C16.6667 10.5998 15.7333 9.6665 14.5833 9.6665C13.4333 9.6665 12.5 10.5998 12.5 11.7498V15.4998C12.5 17.3415 13.9917 18.8332 15.8333 18.8332C17.675 18.8332 19.1667 17.3415 19.1667 15.4998V12.1665H17.5Z" fill="#3689FF"/>
</g>
<defs>
<clipPath id="clip0_655_461">
<rect width="20" height="20" fill="white" transform="translate(0 0.5)"/>
</clipPath>
</defs>
</svg>
