<svg width="25" height="26" viewBox="0 0 25 26" fill="none" xmlns="http://www.w3.org/2000/svg">
<rect y="0.5" width="25" height="25" rx="12.5" fill="white"/>
<path d="M21.3333 13.2198C21.3333 12.5657 21.2748 11.9368 21.166 11.333H12.5V14.9011H17.452C17.2387 16.0542 16.5904 17.0311 15.6159 17.6852V19.9997H18.5896C20.3295 18.3938 21.3333 16.029 21.3333 13.2198Z" fill="#4285F4"/>
<path d="M12.4725 22.167C14.9316 22.167 16.9932 21.3379 18.5002 19.9237L15.5567 17.6005C14.7412 18.156 13.6979 18.4843 12.4725 18.4843C10.1003 18.4843 8.09251 16.8555 7.37631 14.667H4.3335V17.066C5.83213 20.0921 8.9122 22.167 12.4725 22.167Z" fill="#34A853"/>
<path d="M7.3335 14.7625C7.15187 14.2058 7.04867 13.6112 7.04867 12.9997C7.04867 12.3882 7.15187 11.7935 7.3335 11.2369V8.83301H4.29944C3.66373 10.1259 3.33294 11.5528 3.3335 12.9997C3.3335 14.4968 3.68437 15.9138 4.29944 17.1663L7.3335 14.7625Z" fill="#FBBC05"/>
<path d="M12.5299 7.51567C13.8765 7.51567 15.0856 7.98284 16.0361 8.90035L18.6668 6.24462C17.0784 4.75052 15.0022 3.83301 12.5299 3.83301C8.94451 3.83301 5.84271 5.90792 4.3335 8.93402L7.39778 11.333C8.11903 9.14445 10.141 7.51567 12.5299 7.51567Z" fill="#EA4335"/>
</svg>
