<svg width="18" height="18" viewBox="0 0 18 18" fill="none" xmlns="http://www.w3.org/2000/svg">
<path d="M6 16C5.49231 16 5.05785 15.8166 4.69662 15.4497C4.33477 15.0822 4.15385 14.6406 4.15385 14.125V11.3125H6.92308V9.20312C6.38462 9.17188 5.87323 9.05063 5.38892 8.83938C4.904 8.62875 4.46154 8.3125 4.06154 7.89063V6.85938H3L0 3.8125C0.553846 3.09375 1.23846 2.58594 2.05385 2.28906C2.86923 1.99219 3.69231 1.84375 4.52308 1.84375C4.93846 1.84375 5.34246 1.875 5.73508 1.9375C6.12708 2 6.52308 2.11719 6.92308 2.28906V1H18V13.1875C18 13.9688 17.7308 14.6328 17.1923 15.1797C16.6538 15.7266 16 16 15.2308 16H6ZM8.76923 11.3125H14.3077V13.1875C14.3077 13.4531 14.3963 13.6756 14.5735 13.855C14.7502 14.035 14.9692 14.125 15.2308 14.125C15.4923 14.125 15.7114 14.035 15.888 13.855C16.0652 13.6756 16.1538 13.4531 16.1538 13.1875V2.875H8.76923V3.4375L14.3077 9.0625V10.375H13.0154L10.3846 7.70312L10.2 7.89063C9.98462 8.10938 9.75754 8.30469 9.51877 8.47656C9.28062 8.64844 9.03077 8.78125 8.76923 8.875V11.3125ZM3.78462 4.98438H5.90769V7C6.09231 7.125 6.28462 7.21094 6.48461 7.25781C6.68462 7.30469 6.89231 7.32812 7.10769 7.32812C7.46154 7.32812 7.78092 7.27344 8.06585 7.16406C8.35015 7.05469 8.63077 6.85938 8.90769 6.57812L9.09231 6.39062L7.8 5.07813C7.35385 4.625 6.85385 4.285 6.3 4.05813C5.74615 3.83188 5.15385 3.71875 4.52308 3.71875C4.21538 3.71875 3.92308 3.74219 3.64615 3.78906C3.36923 3.83594 3.09231 3.90625 2.81538 4L3.78462 4.98438ZM6 14.125H12.6C12.5538 13.9844 12.5194 13.8359 12.4966 13.6797C12.4732 13.5234 12.4615 13.3594 12.4615 13.1875H6V14.125Z" fill="black"/>
</svg>
