<svg width="16" height="16" viewBox="0 0 16 16" fill="none" xmlns="http://www.w3.org/2000/svg">
<path d="M10.4733 8.47325C11.1269 7.95903 11.604 7.25387 11.8382 6.45588C12.0723 5.6579 12.0519 4.80676 11.7799 4.0209C11.5078 3.23503 10.9975 2.55352 10.32 2.07116C9.64259 1.5888 8.83163 1.32959 8 1.32959C7.16836 1.32959 6.35741 1.5888 5.67995 2.07116C5.00249 2.55352 4.49223 3.23503 4.22014 4.0209C3.94805 4.80676 3.92767 5.6579 4.16184 6.45588C4.396 7.25387 4.87307 7.95903 5.52666 8.47325C4.40672 8.92195 3.42952 9.66615 2.69926 10.6265C1.969 11.5869 1.51304 12.7275 1.38 13.9266C1.37037 14.0141 1.37808 14.1027 1.40268 14.1873C1.42729 14.2719 1.46831 14.3508 1.52341 14.4195C1.63468 14.5582 1.79652 14.6471 1.97333 14.6666C2.15014 14.686 2.32744 14.6345 2.46621 14.5232C2.60499 14.4119 2.69388 14.2501 2.71333 14.0733C2.85972 12.77 3.48112 11.5665 4.45881 10.6924C5.4365 9.81843 6.70193 9.33527 8.01333 9.33527C9.32473 9.33527 10.5902 9.81843 11.5679 10.6924C12.5455 11.5665 13.1669 12.77 13.3133 14.0733C13.3315 14.2371 13.4096 14.3884 13.5327 14.4979C13.6559 14.6075 13.8152 14.6676 13.98 14.6666H14.0533C14.2281 14.6465 14.3878 14.5581 14.4977 14.4208C14.6076 14.2834 14.6587 14.1082 14.64 13.9333C14.5063 12.7307 14.0479 11.5872 13.3139 10.6254C12.5799 9.66353 11.5979 8.91957 10.4733 8.47325ZM8 7.99992C7.47258 7.99992 6.95701 7.84352 6.51848 7.55051C6.07995 7.25749 5.73815 6.84101 5.53632 6.35374C5.33449 5.86647 5.28168 5.3303 5.38457 4.81301C5.48746 4.29573 5.74144 3.82058 6.11438 3.44764C6.48732 3.0747 6.96247 2.82072 7.47976 2.71783C7.99704 2.61493 8.53322 2.66774 9.02049 2.86957C9.50776 3.07141 9.92423 3.4132 10.2173 3.85173C10.5103 4.29026 10.6667 4.80584 10.6667 5.33325C10.6667 6.0405 10.3857 6.71877 9.88562 7.21887C9.38552 7.71897 8.70724 7.99992 8 7.99992Z" fill="#5C5E62"/>
</svg>
