<svg width="28" height="28" viewBox="0 0 28 28" fill="none" xmlns="http://www.w3.org/2000/svg">
<g clip-path="url(#clip0_940_770)">
<path d="M28 25.8125C28 27.0207 27.0207 28 25.8125 28H2.1875C0.979344 28 0 27.0207 0 25.8125V2.1875C0 0.979344 0.979344 0 2.1875 0H25.8125C27.0207 0 28 0.979344 28 2.1875V25.8125Z" fill="#FFE812"/>
<path d="M14 3.9375C7.71772 3.9375 2.625 7.95298 2.625 12.9063C2.625 16.1086 4.75409 18.9186 7.95681 20.5053C7.78258 21.1062 6.83714 24.371 6.79952 24.6275C6.79952 24.6275 6.77688 24.8203 6.90167 24.8938C7.02647 24.9673 7.17325 24.9102 7.17325 24.9102C7.53113 24.8602 11.3233 22.1965 11.9796 21.7339C12.6353 21.8268 13.3105 21.875 14 21.875C20.2823 21.875 25.375 17.8596 25.375 12.9063C25.375 7.95298 20.2823 3.9375 14 3.9375Z" fill="black"/>
</g>
<defs>
<clipPath id="clip0_940_770">
<rect width="28" height="28" fill="white"/>
</clipPath>
</defs>
</svg>
