<svg width="20" height="20" viewBox="0 0 20 20" fill="none" xmlns="http://www.w3.org/2000/svg">
<path d="M6.66675 10.0002C6.66675 10.2212 6.75455 10.4331 6.91083 10.5894C7.06711 10.7457 7.27907 10.8335 7.50008 10.8335H12.5001C12.7211 10.8335 12.9331 10.7457 13.0893 10.5894C13.2456 10.4331 13.3334 10.2212 13.3334 10.0002C13.3334 9.77915 13.2456 9.56719 13.0893 9.41091C12.9331 9.25463 12.7211 9.16683 12.5001 9.16683H7.50008C7.27907 9.16683 7.06711 9.25463 6.91083 9.41091C6.75455 9.56719 6.66675 9.77915 6.66675 10.0002ZM8.33342 12.5002H5.83342C5.17037 12.5002 4.53449 12.2368 4.06565 11.7679C3.59681 11.2991 3.33341 10.6632 3.33341 10.0002C3.33341 9.33712 3.59681 8.70124 4.06565 8.2324C4.53449 7.76355 5.17037 7.50016 5.83342 7.50016H8.33342C8.55443 7.50016 8.76639 7.41237 8.92267 7.25609C9.07895 7.0998 9.16675 6.88784 9.16675 6.66683C9.16675 6.44582 9.07895 6.23385 8.92267 6.07757C8.76639 5.92129 8.55443 5.8335 8.33342 5.8335H5.83342C4.72835 5.8335 3.66854 6.27248 2.88714 7.05388C2.10573 7.83529 1.66675 8.89509 1.66675 10.0002C1.66675 11.1052 2.10573 12.165 2.88714 12.9464C3.66854 13.7278 4.72835 14.1668 5.83342 14.1668H8.33342C8.55443 14.1668 8.76639 14.079 8.92267 13.9228C9.07895 13.7665 9.16675 13.5545 9.16675 13.3335C9.16675 13.1125 9.07895 12.9005 8.92267 12.7442C8.76639 12.588 8.55443 12.5002 8.33342 12.5002ZM14.1667 5.8335H11.6667C11.4457 5.8335 11.2338 5.92129 11.0775 6.07757C10.9212 6.23385 10.8334 6.44582 10.8334 6.66683C10.8334 6.88784 10.9212 7.0998 11.0775 7.25609C11.2338 7.41237 11.4457 7.50016 11.6667 7.50016H14.1667C14.8298 7.50016 15.4657 7.76355 15.9345 8.2324C16.4034 8.70124 16.6667 9.33712 16.6667 10.0002C16.6667 10.6632 16.4034 11.2991 15.9345 11.7679C15.4657 12.2368 14.8298 12.5002 14.1667 12.5002H11.6667C11.4457 12.5002 11.2338 12.588 11.0775 12.7442C10.9212 12.9005 10.8334 13.1125 10.8334 13.3335C10.8334 13.5545 10.9212 13.7665 11.0775 13.9228C11.2338 14.079 11.4457 14.1668 11.6667 14.1668H14.1667C15.2718 14.1668 16.3316 13.7278 17.113 12.9464C17.8944 12.165 18.3334 11.1052 18.3334 10.0002C18.3334 8.89509 17.8944 7.83529 17.113 7.05388C16.3316 6.27248 15.2718 5.8335 14.1667 5.8335Z" fill="#3689FF"/>
</svg>
