<svg width="16" height="17" viewBox="0 0 16 17" fill="none" xmlns="http://www.w3.org/2000/svg">
<g clip-path="url(#clip0_653_400)">
<path d="M7.4 8.5C7.84 8.5 8.2168 8.3432 8.5304 8.0296C8.84347 7.71653 9 7.34 9 6.9C9 6.46 8.84347 6.0832 8.5304 5.7696C8.2168 5.45653 7.84 5.3 7.4 5.3C6.96 5.3 6.58347 5.45653 6.2704 5.7696C5.9568 6.0832 5.8 6.46 5.8 6.9C5.8 7.34 5.9568 7.71653 6.2704 8.0296C6.58347 8.3432 6.96 8.5 7.4 8.5ZM7.4 14.38C9.02667 12.8867 10.2333 11.5299 11.02 10.3096C11.8067 9.08987 12.2 8.00667 12.2 7.06C12.2 5.60667 11.7365 4.41653 10.8096 3.4896C9.8832 2.5632 8.74667 2.1 7.4 2.1C6.05333 2.1 4.91653 2.5632 3.9896 3.4896C3.0632 4.41653 2.6 5.60667 2.6 7.06C2.6 8.00667 2.99333 9.08987 3.78 10.3096C4.56667 11.5299 5.77333 12.8867 7.4 14.38ZM7.4 16.5C5.25333 14.6733 3.65013 12.9765 2.5904 11.4096C1.53013 9.8432 1 8.39333 1 7.06C1 5.06 1.64347 3.46667 2.9304 2.28C4.2168 1.09333 5.70667 0.5 7.4 0.5C9.09333 0.5 10.5832 1.09333 11.8696 2.28C13.1565 3.46667 13.8 5.06 13.8 7.06C13.8 8.39333 13.2701 9.8432 12.2104 11.4096C11.1501 12.9765 9.54667 14.6733 7.4 16.5Z" fill="#5C5E62"/>
</g>
<defs>
<clipPath id="clip0_653_400">
<rect width="12.8" height="16" fill="white" transform="translate(1 0.5)"/>
</clipPath>
</defs>
</svg>
