<svg width="10" height="12" viewBox="0 0 10 12" fill="none" xmlns="http://www.w3.org/2000/svg">
<path d="M4.8 6C5.13 6 5.4126 5.8824 5.6478 5.6472C5.8826 5.4124 6 5.13 6 4.8C6 4.47 5.8826 4.1874 5.6478 3.9522C5.4126 3.7174 5.13 3.6 4.8 3.6C4.47 3.6 4.1876 3.7174 3.9528 3.9522C3.7176 4.1874 3.6 4.47 3.6 4.8C3.6 5.13 3.7176 5.4124 3.9528 5.6472C4.1876 5.8824 4.47 6 4.8 6ZM4.8 10.41C6.02 9.29 6.925 8.2724 7.515 7.3572C8.105 6.4424 8.4 5.63 8.4 4.92C8.4 3.83 8.0524 2.9374 7.3572 2.2422C6.6624 1.5474 5.81 1.2 4.8 1.2C3.79 1.2 2.9374 1.5474 2.2422 2.2422C1.5474 2.9374 1.2 3.83 1.2 4.92C1.2 5.63 1.495 6.4424 2.085 7.3572C2.675 8.2724 3.58 9.29 4.8 10.41ZM4.8 12C3.19 10.63 1.9876 9.3574 1.1928 8.1822C0.3976 7.0074 0 5.92 0 4.92C0 3.42 0.4826 2.225 1.4478 1.335C2.4126 0.445 3.53 0 4.8 0C6.07 0 7.1874 0.445 8.1522 1.335C9.1174 2.225 9.6 3.42 9.6 4.92C9.6 5.92 9.2026 7.0074 8.4078 8.1822C7.6126 9.3574 6.41 10.63 4.8 12Z" fill="#BFC5C9"/>
</svg>
