<svg width="74" height="28" viewBox="0 0 74 28" fill="none" xmlns="http://www.w3.org/2000/svg">
<path d="M10.6048 28H10.4399C1.63009 28 0.201471 24.095 0.128209 21.7521L3.47997 21.6479C3.57155 24.2686 7.30794 24.8066 10.4582 24.8066H10.6231C12.5462 24.8066 14.7075 24.8066 16.3009 24.338C17.9493 23.8521 18.279 23.0884 18.279 22.0818C18.279 20.5372 17.6929 19.1488 10.5681 19.0446C6.02584 18.9752 0 18.3157 0 13.4909C0 11.3388 0.897467 9.70744 2.63745 8.61405C4.39575 7.53802 7.08815 7 10.8795 7C14.6708 7 17.6746 7.93719 19.5611 9.7595C21.6308 11.7554 21.6308 14.0463 21.6308 14.3066L18.279 14.2372C18.279 13.838 18.0409 10.176 10.8795 10.176C3.35176 10.176 3.35176 12.3281 3.35176 13.4736C3.35176 13.9942 3.44334 14.3066 3.97449 14.6537C4.74375 15.157 6.52037 15.7818 10.6414 15.8512C14.2129 15.9033 21.6308 16.0248 21.6308 22.0645C21.6308 23.8868 20.8798 26.2992 17.29 27.3405C15.2752 27.9306 12.8942 27.9479 10.7879 27.9479H10.6231L10.6048 28Z" fill="#3689FF"/>
<path d="M33.0149 15.9473L29.9955 24.5982L26.9761 5.83333H23.9072L27.4876 28H32.0085L34.1534 22.2023L33.0149 15.9473Z" fill="#3689FF"/>
<path d="M35.0533 0H31.877L32.1331 3.5H35.2923L35.0533 0Z" fill="#7AE8F8"/>
<path d="M25.9458 0H22.7695L23.0086 3.5H26.1849L25.9458 0Z" fill="#7AE8F8"/>
<path d="M43.2618 15.9473H41.5777L39.4328 23.7934L36.3128 5.83333H33.0156L36.8801 28H41.7195L43.2618 22.2023V15.9473Z" fill="#3689FF"/>
<path d="M46.4316 28V5.89473H49.3336V28H46.4316Z" fill="#3689FF"/>
<path d="M70.7922 28V12.0803L65.7787 24.1712H61.7117L56.7158 11.6223V28H53.5078V5.83333H57.8727L63.7627 20.6172L69.8981 5.83333H74.0001V28H70.7922Z" fill="#3689FF"/>
</svg>
