<svg width="22" height="22" viewBox="0 0 22 22" fill="none" xmlns="http://www.w3.org/2000/svg">
<mask id="mask0_1208_379" style="mask-type:alpha" maskUnits="userSpaceOnUse" x="0" y="0" width="22" height="22">
<circle cx="11" cy="11" r="11" fill="#EBECEE"/>
</mask>
<g mask="url(#mask0_1208_379)">
<circle cx="11" cy="11" r="11" fill="#EBECEE"/>
<path d="M16.1538 20.1355C16.1538 20.1355 15.0884 21.9999 10.8269 21.9999C6.56538 21.9999 5.5 20.1355 5.5 20.1355V18.8165C5.5 17.9419 5.85076 17.1031 6.47513 16.4847C7.09949 15.8663 7.94631 15.5189 8.8293 15.5189H12.8245C13.7074 15.5189 14.5543 15.8663 15.1786 16.4847C15.803 17.1031 16.1538 17.9419 16.1538 18.8165V20.1355ZM10.9334 13.4142C10.4088 13.4142 9.88925 13.3119 9.40453 13.113C8.91982 12.9141 8.4794 12.6227 8.10841 12.2552C7.73743 11.8878 7.44315 11.4515 7.24237 10.9714C7.04159 10.4913 6.93826 9.97676 6.93826 9.45711C6.93826 8.93745 7.04159 8.42289 7.24237 7.94279C7.44315 7.46269 7.73743 7.02646 8.10841 6.65901C8.4794 6.29156 8.91982 6.00008 9.40453 5.80122C9.88925 5.60235 10.4088 5.5 10.9334 5.5C11.993 5.5 13.0092 5.91691 13.7584 6.65901C14.5077 7.40111 14.9286 8.40762 14.9286 9.45711C14.9286 10.5066 14.5077 11.5131 13.7584 12.2552C13.0092 12.9973 11.993 13.4142 10.9334 13.4142Z" fill="white"/>
<path d="M17.2868 20.821H15.7153V19.2496C15.7153 18.6244 15.467 18.0249 15.0249 17.5828C14.5829 17.1408 13.9833 16.8924 13.3582 16.8924H8.6439C8.01875 16.8924 7.4192 17.1408 6.97715 17.5828C6.5351 18.0249 6.28676 18.6244 6.28676 19.2496V20.821H4.71533V19.2496C4.71533 18.2077 5.12923 17.2084 5.86598 16.4717C6.60273 15.7349 7.60198 15.321 8.6439 15.321H13.3582C14.4001 15.321 15.3994 15.7349 16.1361 16.4717C16.8729 17.2084 17.2868 18.2077 17.2868 19.2496V20.821ZM11.001 14.1424C10.382 14.1424 9.76893 14.0205 9.19697 13.7836C8.625 13.5467 8.1053 13.1994 7.66754 12.7617C7.22978 12.3239 6.88253 11.8042 6.64561 11.2322C6.4087 10.6603 6.28676 10.0472 6.28676 9.42815C6.28676 8.80906 6.4087 8.19604 6.64561 7.62407C6.88253 7.05211 7.22978 6.53241 7.66754 6.09465C8.1053 5.65689 8.625 5.30964 9.19697 5.07272C9.76893 4.83581 10.382 4.71387 11.001 4.71387C12.2514 4.71387 13.4505 5.21055 14.3346 6.09465C15.2187 6.97875 15.7153 8.17785 15.7153 9.42815C15.7153 10.6785 15.2187 11.8776 14.3346 12.7617C13.4505 13.6458 12.2514 14.1424 11.001 14.1424ZM11.001 12.571C11.8346 12.571 12.634 12.2399 13.2234 11.6505C13.8128 11.0611 14.1439 10.2617 14.1439 9.42815C14.1439 8.59461 13.8128 7.79522 13.2234 7.20582C12.634 6.61642 11.8346 6.2853 11.001 6.2853C10.1675 6.2853 9.36811 6.61642 8.77871 7.20582C8.18931 7.79522 7.85819 8.59461 7.85819 9.42815C7.85819 10.2617 8.18931 11.0611 8.77871 11.6505C9.36811 12.2399 10.1675 12.571 11.001 12.571Z" fill="#3689FF"/>
</g>
</svg>
