<svg width="14" height="15" viewBox="0 0 14 15" fill="none" xmlns="http://www.w3.org/2000/svg">
<path d="M12 1.33333H11.3333V0H10V1.33333H3.33333V0H2V1.33333H1.33333C0.6 1.33333 0 1.93333 0 2.66667V13.3333C0 14.0667 0.6 14.6667 1.33333 14.6667H12C12.7333 14.6667 13.3333 14.0667 13.3333 13.3333V2.66667C13.3333 1.93333 12.7333 1.33333 12 1.33333ZM12 13.3333H1.33333V6H12V13.3333ZM12 4.66667H1.33333V2.66667H12V4.66667Z" fill="#D7DBDE"/>
<path d="M8.63167 11.3935C9.20367 11.3935 9.56767 10.7825 9.56767 9.81397C9.56767 8.84547 9.20367 8.23446 8.63167 8.23446C8.05317 8.23446 7.68917 8.84547 7.68917 9.81397C7.68917 10.7825 8.05317 11.3935 8.63167 11.3935ZM6.70117 9.81397C6.70117 8.38397 7.50067 7.37646 8.63167 7.37646C9.76267 7.37646 10.5557 8.38397 10.5557 9.81397C10.5557 11.244 9.76267 12.2515 8.63167 12.2515C7.50067 12.2515 6.70117 11.244 6.70117 9.81397Z" fill="#D7DBDE"/>
<path d="M5.47616 9.736C5.91816 9.983 6.23016 10.451 6.23016 10.8605C6.23016 11.673 5.52166 12.245 4.50766 12.245C3.49366 12.245 2.78516 11.634 2.78516 10.763H3.77316C3.77316 11.1205 4.07866 11.374 4.50766 11.374C4.96266 11.374 5.28766 11.1205 5.28766 10.763C5.28766 10.3925 4.96916 10.1325 4.52066 10.1325H4.19566V9.3525H4.53366C4.93666 9.3525 5.21616 9.1185 5.21616 8.787C5.21616 8.4815 4.94316 8.267 4.55316 8.267C4.18916 8.267 3.92916 8.4815 3.92916 8.787H2.94116C2.94116 7.968 3.60416 7.396 4.55316 7.396C5.48916 7.396 6.15216 7.929 6.15216 8.6895C6.15216 9.0665 5.87266 9.502 5.47616 9.736Z" fill="#D7DBDE"/>
<path fill-rule="evenodd" clip-rule="evenodd" d="M9.17052 10.8815C9.31252 10.6423 9.40068 10.2802 9.40068 9.81364C9.40068 9.34708 9.31252 8.98502 9.17052 8.74576C9.03179 8.512 8.84721 8.40081 8.63135 8.40081C8.41151 8.40081 8.22547 8.51274 8.0863 8.74608C7.94369 8.98517 7.85551 9.34705 7.85551 9.81364C7.85551 10.2802 7.94369 10.6421 8.0863 10.8812C8.22547 11.1145 8.41151 11.2265 8.63135 11.2265C8.84721 11.2265 9.03179 11.1153 9.17052 10.8815ZM6.53418 9.81364C6.53418 8.32983 7.37424 7.20947 8.63135 7.20947C9.8891 7.20947 10.722 8.33063 10.722 9.81364C10.722 11.2966 9.8891 12.4178 8.63135 12.4178C7.37424 12.4178 6.53418 11.2975 6.53418 9.81364ZM9.56735 9.81364C9.56735 10.7821 9.20335 11.3931 8.63135 11.3931C8.05285 11.3931 7.68885 10.7821 7.68885 9.81364C7.68885 8.84514 8.05285 8.23414 8.63135 8.23414C9.20335 8.23414 9.56735 8.84514 9.56735 9.81364ZM8.63135 7.37614C7.50035 7.37614 6.70085 8.38364 6.70085 9.81364C6.70085 11.2436 7.50035 12.2511 8.63135 12.2511C9.76235 12.2511 10.5553 11.2436 10.5553 9.81364C10.5553 8.38364 9.76235 7.37614 8.63135 7.37614Z" fill="#D7DBDE"/>
<path fill-rule="evenodd" clip-rule="evenodd" d="M2.95026 8.62C3.03413 7.89111 3.66962 7.39567 4.55283 7.39567C5.48883 7.39567 6.15183 7.92867 6.15183 8.68917C6.15183 9.01592 5.94188 9.38661 5.62777 9.63197C5.57946 9.66971 5.52868 9.70448 5.47583 9.73567C5.52956 9.7657 5.58137 9.79899 5.63093 9.83504C5.98907 10.0956 6.22983 10.5005 6.22983 10.8602C6.22983 11.6727 5.52133 12.2447 4.50733 12.2447C3.55933 12.2447 2.87835 11.7106 2.79372 10.9293C2.78783 10.8749 2.78483 10.8194 2.78483 10.7627H3.77283C3.77283 11.1202 4.07833 11.3737 4.50733 11.3737C4.96233 11.3737 5.28733 11.1202 5.28733 10.7627C5.28733 10.3922 4.96883 10.1322 4.52033 10.1322H4.19533V9.35217H4.53333C4.93633 9.35217 5.21583 9.11817 5.21583 8.78667C5.21583 8.48117 4.94283 8.26667 4.55283 8.26667C4.18883 8.26667 3.92883 8.48117 3.92883 8.78667H2.94083C2.94083 8.72989 2.94402 8.6743 2.95026 8.62ZM5.77001 9.73119C6.13996 10.0175 6.3965 10.4505 6.3965 10.8602C6.3965 11.3191 6.19475 11.7122 5.85333 11.9869C5.5143 12.2598 5.04457 12.4113 4.50733 12.4113C3.96741 12.4113 3.49612 12.2485 3.15709 11.9566C2.81629 11.6632 2.61816 11.2465 2.61816 10.7627V10.596H3.9395V10.7627C3.9395 11.0006 4.14021 11.207 4.50733 11.207C4.91069 11.207 5.12066 10.9923 5.12066 10.7627C5.12066 10.5136 4.90917 10.2988 4.52033 10.2988H4.02866V9.1855H4.53333C4.70342 9.1855 4.83416 9.13621 4.91918 9.06555C5.00209 8.99665 5.04916 8.9019 5.04916 8.78667C5.04916 8.68824 5.00696 8.60543 4.92769 8.54322C4.8458 8.47896 4.71856 8.43334 4.55283 8.43334C4.25064 8.43334 4.0955 8.60079 4.0955 8.78667V8.95334H2.77416V8.78667C2.77416 8.32909 2.96072 7.93514 3.28208 7.65786C3.60165 7.38211 4.0454 7.229 4.55283 7.229C5.54582 7.229 6.3185 7.8051 6.3185 8.68917C6.3185 9.06253 6.0952 9.46021 5.77001 9.73119Z" fill="#D7DBDE"/>
</svg>
