<svg width="20" height="21" viewBox="0 0 20 21" fill="none" xmlns="http://www.w3.org/2000/svg">
<g clip-path="url(#clip0_655_456)">
<path d="M7.54545 17.7727H11.1818V16.8636H7.54545V17.7727ZM4.81818 14.1364H13.9091V5.04545H4.81818V14.1364ZM4.81818 20.5C4.31818 20.5 3.8903 20.3221 3.53455 19.9664C3.17818 19.61 3 19.1818 3 18.6818V2.31818C3 1.81818 3.17818 1.39 3.53455 1.03364C3.8903 0.677879 4.31818 0.5 4.81818 0.5H13.9091C14.4091 0.5 14.8373 0.677879 15.1936 1.03364C15.5494 1.39 15.7273 1.81818 15.7273 2.31818V18.6818C15.7273 19.1818 15.5494 19.61 15.1936 19.9664C14.8373 20.3221 14.4091 20.5 13.9091 20.5H4.81818ZM4.81818 3.22727H13.9091V2.31818H4.81818V3.22727ZM4.81818 15.9545V18.6818H13.9091V15.9545H4.81818Z" fill="#BFC5C9"/>
</g>
<defs>
<clipPath id="clip0_655_456">
<rect width="20" height="20" fill="white" transform="translate(0 0.5)"/>
</clipPath>
</defs>
</svg>
