<svg width="20" height="20" viewBox="0 0 20 20" fill="none" xmlns="http://www.w3.org/2000/svg">
<path d="M10.6697 1.81436H9.33043C9.24778 1.81436 9.15825 1.83512 9.09043 1.90293C9.02262 1.97075 9.00186 2.06028 9.00186 2.14293V17.8572C9.00186 17.9399 9.02262 18.0294 9.09043 18.0972C9.15825 18.165 9.24778 18.1858 9.33043 18.1858H10.6697C10.7524 18.1858 10.8419 18.165 10.9097 18.0972C10.9775 18.0294 10.9983 17.9399 10.9983 17.8572V2.14293C10.9983 2.06028 10.9775 1.97075 10.9097 1.90293C10.8419 1.83512 10.7524 1.81436 10.6697 1.81436Z" fill="white" stroke="white" stroke-width="0.3"/>
<path d="M17.4999 9.00186H2.49986C2.41721 9.00186 2.32768 9.02262 2.25987 9.09043C2.19205 9.15825 2.17129 9.24778 2.17129 9.33043V10.6697C2.17129 10.7524 2.19205 10.8419 2.25987 10.9097C2.32768 10.9775 2.41722 10.9983 2.49986 10.9983H17.4999C17.5825 10.9983 17.672 10.9775 17.7399 10.9097C17.8077 10.8419 17.8284 10.7524 17.8284 10.6697V9.33043C17.8284 9.24778 17.8077 9.15825 17.7399 9.09043C17.672 9.02262 17.5825 9.00186 17.4999 9.00186Z" fill="white" stroke="white" stroke-width="0.3"/>
</svg>
