<svg width="20" height="21" viewBox="0 0 20 21" fill="none" xmlns="http://www.w3.org/2000/svg">
<g clip-path="url(#clip0_2483_591)">
<path d="M4.58332 15.0833H3.33332V5.91668H9.83332L9.16666 6.57501C9.00974 6.73082 8.92114 6.94259 8.92036 7.16373C8.91958 7.38487 9.00668 7.59726 9.16249 7.75418C9.3183 7.9111 9.53007 7.99969 9.75121 8.00047C9.97235 8.00125 10.1847 7.91416 10.3417 7.75834L12.425 5.67501C12.5031 5.59754 12.5651 5.50537 12.6074 5.40382C12.6497 5.30227 12.6715 5.19335 12.6715 5.08334C12.6715 4.97333 12.6497 4.86441 12.6074 4.76286C12.5651 4.66131 12.5031 4.56915 12.425 4.49168L10.3417 2.40834C10.1855 2.25313 9.97431 2.16602 9.75416 2.16602C9.534 2.16602 9.32279 2.25313 9.16666 2.40834C9.08855 2.48581 9.02655 2.57798 8.98425 2.67953C8.94194 2.78108 8.92016 2.89 8.92016 3.00001C8.92016 3.11002 8.94194 3.21894 8.98425 3.32049C9.02655 3.42204 9.08855 3.51421 9.16666 3.59168L9.82499 4.25001H2.49999C2.27898 4.25001 2.06701 4.33781 1.91073 4.49409C1.75445 4.65037 1.66666 4.86233 1.66666 5.08334V15.9167C1.66666 16.1377 1.75445 16.3497 1.91073 16.5059C2.06701 16.6622 2.27898 16.75 2.49999 16.75H4.58332C4.80434 16.75 5.0163 16.6622 5.17258 16.5059C5.32886 16.3497 5.41666 16.1377 5.41666 15.9167C5.41666 15.6957 5.32886 15.4837 5.17258 15.3274C5.0163 15.1711 4.80434 15.0833 4.58332 15.0833ZM17.5 4.25001H15.4167C15.1956 4.25001 14.9837 4.33781 14.8274 4.49409C14.6711 4.65037 14.5833 4.86233 14.5833 5.08334C14.5833 5.30436 14.6711 5.51632 14.8274 5.6726C14.9837 5.82888 15.1956 5.91668 15.4167 5.91668H16.6667V15.0833H9.69166L10.35 14.425C10.4281 14.3475 10.4901 14.2554 10.5324 14.1538C10.5747 14.0523 10.5965 13.9434 10.5965 13.8333C10.5965 13.7233 10.5747 13.6144 10.5324 13.5129C10.4901 13.4113 10.4281 13.3191 10.35 13.2417C10.1939 13.0865 9.98265 12.9993 9.76249 12.9993C9.54234 12.9993 9.33113 13.0865 9.17499 13.2417L7.09166 15.325C7.01355 15.4025 6.95155 15.4946 6.90925 15.5962C6.86694 15.6977 6.84516 15.8067 6.84516 15.9167C6.84516 16.0267 6.86694 16.1356 6.90925 16.2372C6.95155 16.3387 7.01355 16.4309 7.09166 16.5083L9.17499 18.5917C9.33191 18.7475 9.5443 18.8346 9.76544 18.8338C9.98657 18.833 10.1983 18.7444 10.3542 18.5875C10.51 18.4306 10.5971 18.2182 10.5963 17.9971C10.5955 17.7759 10.5069 17.5642 10.35 17.4083L9.69166 16.75H17.5C17.721 16.75 17.933 16.6622 18.0892 16.5059C18.2455 16.3497 18.3333 16.1377 18.3333 15.9167V5.08334C18.3333 4.86233 18.2455 4.65037 18.0892 4.49409C17.933 4.33781 17.721 4.25001 17.5 4.25001Z" fill="#212223"/>
</g>
<defs>
<clipPath id="clip0_2483_591">
<rect width="20" height="20" fill="white" transform="translate(0 0.5)"/>
</clipPath>
</defs>
</svg>
