<svg width="16" height="16" viewBox="0 0 16 16" fill="none" xmlns="http://www.w3.org/2000/svg">
<path d="M8.19984 8.14683C8.55556 7.83892 8.84087 7.45809 9.03642 7.03018C9.23197 6.60227 9.33318 6.1373 9.33317 5.66683C9.33317 4.78277 8.98198 3.93493 8.35686 3.30981C7.73174 2.68469 6.88389 2.3335 5.99984 2.3335C5.11578 2.3335 4.26794 2.68469 3.64281 3.30981C3.01769 3.93493 2.6665 4.78277 2.6665 5.66683C2.6665 6.1373 2.76771 6.60227 2.96325 7.03018C3.1588 7.45809 3.44412 7.83892 3.79984 8.14683C2.8666 8.56942 2.07481 9.25185 1.51916 10.1125C0.963501 10.9732 0.667485 11.9757 0.666504 13.0002C0.666504 13.177 0.736742 13.3465 0.861766 13.4716C0.98679 13.5966 1.15636 13.6668 1.33317 13.6668C1.50998 13.6668 1.67955 13.5966 1.80458 13.4716C1.9296 13.3465 1.99984 13.177 1.99984 13.0002C1.99984 11.9393 2.42126 10.9219 3.17141 10.1717C3.92156 9.42159 4.93897 9.00016 5.99984 9.00016C7.0607 9.00016 8.07812 9.42159 8.82826 10.1717C9.57841 10.9219 9.99984 11.9393 9.99984 13.0002C9.99984 13.177 10.0701 13.3465 10.1951 13.4716C10.3201 13.5966 10.4897 13.6668 10.6665 13.6668C10.8433 13.6668 11.0129 13.5966 11.1379 13.4716C11.2629 13.3465 11.3332 13.177 11.3332 13.0002C11.3322 11.9757 11.0362 10.9732 10.4805 10.1125C9.92486 9.25185 9.13308 8.56942 8.19984 8.14683ZM5.99984 7.66683C5.60427 7.66683 5.2176 7.54953 4.8887 7.32977C4.5598 7.11001 4.30345 6.79765 4.15208 6.4322C4.0007 6.06674 3.9611 5.66461 4.03827 5.27665C4.11544 4.88869 4.30592 4.53232 4.58562 4.25262C4.86533 3.97291 5.22169 3.78243 5.60966 3.70526C5.99762 3.62809 6.39975 3.6677 6.7652 3.81907C7.13066 3.97045 7.44301 4.22679 7.66278 4.55569C7.88254 4.88459 7.99984 5.27127 7.99984 5.66683C7.99984 6.19726 7.78912 6.70597 7.41405 7.08104C7.03898 7.45612 6.53027 7.66683 5.99984 7.66683ZM12.4932 7.88016C12.9198 7.39972 13.1985 6.8062 13.2957 6.17106C13.3929 5.53591 13.3045 4.88621 13.041 4.30016C12.7776 3.71411 12.3504 3.21669 11.8108 2.86778C11.2713 2.51886 10.6424 2.33332 9.99984 2.3335C9.82303 2.3335 9.65346 2.40373 9.52843 2.52876C9.40341 2.65378 9.33317 2.82335 9.33317 3.00016C9.33317 3.17697 9.40341 3.34654 9.52843 3.47157C9.65346 3.59659 9.82303 3.66683 9.99984 3.66683C10.5303 3.66683 11.039 3.87754 11.4141 4.25262C11.7891 4.62769 11.9998 5.1364 11.9998 5.66683C11.9989 6.01699 11.906 6.36076 11.7305 6.66378C11.5551 6.96679 11.3031 7.21842 10.9998 7.3935C10.901 7.45051 10.8184 7.53194 10.7601 7.62999C10.7017 7.72804 10.6695 7.83943 10.6665 7.9535C10.6637 8.06667 10.6898 8.17869 10.7423 8.279C10.7948 8.37931 10.8719 8.4646 10.9665 8.52683L11.2265 8.70016L11.3132 8.74683C12.1168 9.12797 12.7947 9.73082 13.2672 10.4844C13.7396 11.2379 13.9869 12.1108 13.9798 13.0002C13.9798 13.177 14.0501 13.3465 14.1751 13.4716C14.3001 13.5966 14.4697 13.6668 14.6465 13.6668C14.8233 13.6668 14.9929 13.5966 15.1179 13.4716C15.2429 13.3465 15.3132 13.177 15.3132 13.0002C15.3186 11.9771 15.0624 10.9697 14.5688 10.0735C14.0752 9.17741 13.3607 8.42237 12.4932 7.88016Z" fill="#5C5E62"/>
</svg>
