<svg width="14" height="15" viewBox="0 0 14 15" fill="none" xmlns="http://www.w3.org/2000/svg">
<path d="M12 1.33333H11.3333V0H10V1.33333H3.33333V0H2V1.33333H1.33333C0.6 1.33333 0 1.93333 0 2.66667V13.3333C0 14.0667 0.6 14.6667 1.33333 14.6667H12C12.7333 14.6667 13.3333 14.0667 13.3333 13.3333V2.66667C13.3333 1.93333 12.7333 1.33333 12 1.33333ZM12 13.3333H1.33333V6H12V13.3333ZM12 4.66667H1.33333V2.66667H12V4.66667Z" fill="#D7DBDE"/>
<path d="M6.56724 12.2577H5.47524L7.27574 8.24066L5.26074 8.24716V7.38916H8.30274L8.36774 8.24066L6.56724 12.2577Z" fill="#D7DBDE"/>
<path fill-rule="evenodd" clip-rule="evenodd" d="M6.67583 12.4245H5.21855L7.01867 8.40832L5.09473 8.41453V7.22266H8.45782L8.5378 8.27035L6.67583 12.4245ZM5.26139 8.24732V7.38932H8.30339L8.36839 8.24082L6.56789 12.2578H5.47589L7.27639 8.24082L5.26139 8.24732Z" fill="#D7DBDE"/>
</svg>
