<svg width="22" height="22" viewBox="0 0 22 22" fill="none" xmlns="http://www.w3.org/2000/svg">
<path d="M19.9006 18.599L16.4998 15.2256C17.8199 13.5797 18.4592 11.4905 18.2862 9.38765C18.1132 7.28482 17.1412 5.32817 15.5698 3.92005C13.9985 2.51192 11.9474 1.75934 9.8383 1.81705C7.72916 1.87477 5.72229 2.73839 4.23034 4.23034C2.73839 5.72229 1.87477 7.72916 1.81705 9.8383C1.75934 11.9474 2.51192 13.9985 3.92005 15.5698C5.32817 17.1412 7.28482 18.1132 9.38765 18.2862C11.4905 18.4592 13.5797 17.8199 15.2256 16.4998L18.599 19.8731C18.6842 19.959 18.7856 20.0272 18.8973 20.0738C19.009 20.1203 19.1288 20.1443 19.2498 20.1443C19.3708 20.1443 19.4906 20.1203 19.6023 20.0738C19.714 20.0272 19.8154 19.959 19.9006 19.8731C20.0658 19.7022 20.1582 19.4738 20.1582 19.236C20.1582 18.9983 20.0658 18.7699 19.9006 18.599ZM10.0831 16.4998C8.81403 16.4998 7.57343 16.1235 6.51821 15.4184C5.463 14.7133 4.64056 13.7112 4.1549 12.5387C3.66923 11.3662 3.54216 10.076 3.78975 8.83129C4.03734 7.58658 4.64847 6.44324 5.54586 5.54586C6.44324 4.64847 7.58658 4.03734 8.83129 3.78975C10.076 3.54216 11.3662 3.66923 12.5387 4.1549C13.7112 4.64056 14.7133 5.463 15.4184 6.51821C16.1235 7.57343 16.4998 8.81403 16.4998 10.0831C16.4998 11.7849 15.8237 13.417 14.6204 14.6204C13.417 15.8238 11.7849 16.4998 10.0831 16.4998Z" fill="#5C5E62"/>
</svg>
